<svg width="475" height="893" viewBox="0 0 475 893" fill="none" xmlns="http://www.w3.org/2000/svg">
<g opacity="0.1">
<path d="M122.149 174.233C132.43 164.02 138.314 149.478 138.314 134.192C138.314 118.838 132.768 104.635 122.352 94.3537L27.8626 0L-19.8892 47.8194C16.8378 84.5463 47.545 115.186 47.545 115.186C61.6135 129.322 61.6135 138.994 47.545 153.063L41.7281 159.015L89.5476 206.834C105.78 190.601 122.149 174.233 122.149 174.233Z" fill="#9B0080"/>
<path d="M-65.9499 718.44C-75.9602 728.654 -81.9124 743.196 -81.9124 758.482C-81.9124 773.632 -76.5014 788.039 -66.2882 798.523L28.4037 892.538L76.2232 844.719C39.4962 807.857 8.7215 777.285 8.7215 777.285C-5.48229 763.216 -5.48229 753.544 8.7215 739.34L14.5382 733.591L-33.1459 685.704C-49.3111 702.072 -65.9499 718.44 -65.9499 718.44Z" fill="#9B0080"/>
<path d="M99.2888 648.978C104.903 643.161 111.734 640.253 119.512 640.253H249.578C259.995 640.253 266.555 642.147 270.546 646.137C274.334 650.128 276.295 656.756 276.295 667.105V675.221H343.797V629.025C343.797 598.318 318.163 572.548 287.32 572.751H108.217C90.1579 572.548 72.7074 579.853 60.3298 592.163C60.3298 592.163 51.8077 600.618 40.9857 611.372L88.9404 659.394L99.2888 648.978Z" fill="#9B0080"/>
<path d="M221.78 539.067C221.78 531.424 224.485 524.255 229.896 518.912L321.95 426.925C329.187 419.688 335.072 416.238 340.753 416.238C346.367 416.238 352.454 419.62 359.624 426.925L365.441 432.742L413.328 385.058L380.727 352.186C358.812 330.542 322.423 330.542 300.915 352.186L173.96 479.141C161.177 491.789 153.872 509.104 153.872 526.757C153.872 526.757 153.872 538.729 154.075 553.88H221.712V539.067H221.78Z" fill="#9B0080"/>
<path d="M300.239 540.488C310.587 550.701 324.994 556.585 340.28 556.585C355.498 556.585 369.905 551.039 380.321 540.623L474.607 446.134L426.585 398.247C389.79 435.109 359.218 465.681 359.218 465.681C345.15 479.885 335.545 479.885 321.409 465.681L315.457 459.864L267.502 507.616C283.735 523.849 300.239 540.488 300.239 540.488Z" fill="#9B0080"/>
<path d="M230.708 375.25C225.094 369.569 221.983 362.602 221.983 354.891V224.893C221.983 214.612 224.079 207.916 227.934 203.858C231.925 199.935 238.621 198.041 248.834 198.041H257.221V130.472L210.958 130.674C180.318 130.674 154.684 156.377 154.684 186.949V366.39C154.684 384.381 161.718 401.696 174.095 414.209C174.095 414.209 182.55 422.664 193.44 433.418L241.259 385.463L230.708 375.25Z" fill="#9B0080"/>
<path d="M153.939 705.251C153.939 719.658 160.23 734.132 171.052 744.954C181.738 755.776 195.807 761.998 210.484 761.998L343.864 761.863L343.796 694.091C291.851 694.294 248.564 694.294 248.564 694.294C228.543 694.294 221.644 687.395 221.644 667.577V659.19H154.21C154.074 681.916 153.939 705.251 153.939 705.251Z" fill="#9B0080"/>
<path d="M-64.7312 639.712C-56.8853 639.712 -49.7834 642.417 -44.4401 648.099L47.4787 740.153C54.8511 747.255 58.0978 753.207 58.0978 759.091C58.0978 764.502 54.9188 770.59 47.4787 777.962L41.7295 783.779L89.549 831.598L122.15 799.065C143.659 777.15 143.659 740.559 122.15 719.118L-4.53423 592.501C-17.3853 579.447 -34.8355 572.21 -52.3535 572.21H-79.476V639.847L-64.7312 639.712Z" fill="#9B0080"/>
<path d="M221.78 539.067C221.78 531.424 224.485 524.255 229.896 518.912L321.95 426.925C329.187 419.688 335.072 416.238 340.753 416.238C346.367 416.238 352.454 419.62 359.624 426.925L365.441 432.742L413.328 385.058L380.727 352.186C358.812 330.542 322.423 330.542 300.915 352.186L173.96 479.141C161.177 491.789 153.872 509.104 153.872 526.757C153.872 526.757 153.872 538.729 154.075 553.88H221.712V539.067H221.78Z" fill="#9B0080"/>
<path d="M287.049 320.397C301.591 320.397 315.862 314.242 326.752 303.555C337.506 292.733 343.796 278.664 343.796 264.122L343.458 130.472L275.821 130.674C276.024 182.484 276.024 226.043 276.024 226.043C276.024 245.86 268.99 252.895 249.037 252.895H240.92V320.397H287.049Z" fill="#9B0080"/>
<path d="M121.068 252.895C113.222 252.895 106.12 250.054 100.438 244.441L8.85776 152.522C1.55295 145.285 -1.89651 139.13 -1.89651 133.719C-1.89651 128.037 1.55296 121.95 8.65485 114.78L14.4715 108.693L-33.2125 61.0088L-66.0165 93.8128C-87.3899 115.524 -87.5251 152.048 -66.0165 173.422L61.0059 300.444C73.7893 313.16 90.9015 320.397 108.555 320.397H135.88V252.895H121.068Z" fill="#9B0080"/>
<path d="M-43.0874 243.764C-48.4984 249.378 -55.465 252.354 -63.1756 252.354H-193.039C-203.658 252.354 -210.151 250.46 -214.142 246.47C-217.929 242.412 -220.094 235.851 -220.094 225.57V217.048H-287.595L-287.392 263.582C-287.392 294.086 -261.691 319.924 -231.119 319.924H-51.8804C-33.5507 319.924 -16.1678 312.822 -3.99319 300.444C-3.99319 300.444 4.46143 292.125 15.2157 281.168L-32.4686 233.281L-43.0874 243.764Z" fill="#9B0080"/>
</g>
</svg>
