<svg width="89" height="60" viewBox="0 0 89 60" fill="none" xmlns="http://www.w3.org/2000/svg">
<path d="M5.64026 59.0498C5.73305 59.0957 5.82474 59.0957 5.91753 59.0957C6.14894 59.0957 6.28758 59.0498 6.38036 58.7725C6.61178 58.3108 6.61178 58.3108 6.61178 58.3108C5.2713 55.0742 5.2713 55.0742 5.2713 55.0742C5.77998 55.0742 5.77998 55.0742 5.77998 55.0742C6.8432 57.6635 6.8432 57.6635 6.8432 57.6635C7.90641 55.0742 7.90641 55.0742 7.90641 55.0742C8.46094 55.0742 8.46094 55.0742 8.46094 55.0742C6.8432 58.9112 6.8432 58.9112 6.8432 58.9112C6.65763 59.3729 6.33451 59.5585 5.91862 59.5585C5.82583 59.5585 5.64135 59.5126 5.54857 59.5126L5.64026 59.0498Z" fill="#A67EB1"/>
<path d="M11.465 57.7552C11.465 59.4657 11.465 59.4657 11.465 59.4657C10.9564 59.4657 10.9564 59.4657 10.9564 59.4657C10.9564 55.0731 10.9564 55.0731 10.9564 55.0731C11.465 55.0731 11.465 55.0731 11.465 55.0731C11.465 55.536 11.465 55.536 11.465 55.536C11.6965 55.2129 12.1124 54.9814 12.5283 54.9814C13.3601 54.9814 13.9615 55.6288 13.9615 56.6461C13.9615 57.6635 13.3611 58.3108 12.5283 58.3108C12.1135 58.3097 11.7434 58.1252 11.465 57.7552ZM13.4539 56.6461C13.4539 55.953 13.038 55.4443 12.4366 55.4443C12.0207 55.4443 11.6506 55.6757 11.465 55.953C11.465 57.3862 11.465 57.3862 11.465 57.3862C11.6506 57.6635 12.0196 57.8949 12.4366 57.8949C13.038 57.8938 13.4539 57.3393 13.4539 56.6461Z" fill="#A67EB1"/>
<path d="M16.4591 56.6461C16.4591 55.7215 17.0595 54.9814 18.031 54.9814C19.0014 54.9814 19.6488 55.7215 19.6488 56.6461C19.6488 57.5707 19.0014 58.3108 18.031 58.3108C17.0595 58.3097 16.4591 57.5707 16.4591 56.6461ZM19.0942 56.6461C19.0942 55.9988 18.7242 55.4443 18.031 55.4443C17.3837 55.4443 16.9678 55.9988 16.9678 56.6461C16.9678 57.2934 17.3837 57.8938 18.031 57.8938C18.7242 57.8938 19.0942 57.2934 19.0942 56.6461Z" fill="#A67EB1"/>
<path d="M24.5959 58.2639V55.4901H22.9323V58.2639H22.4236V55.0742H25.0587V58.2639H24.5959Z" fill="#A67EB1"/>
<path d="M27.8793 56.6461C27.8793 55.7215 28.5267 54.9814 29.4512 54.9814C30.4217 54.9814 30.9773 55.7216 30.9773 56.692C30.9773 56.8306 30.9773 56.8306 30.9773 56.8306C28.388 56.8306 28.388 56.8306 28.388 56.8306C28.4339 57.4321 28.8509 57.9397 29.544 57.9397C29.9141 57.9397 30.2841 57.7552 30.5144 57.5238C30.7917 57.848 30.7917 57.848 30.7917 57.848C30.4675 58.1711 30.0058 58.3108 29.4971 58.3108C28.5725 58.3097 27.8793 57.6624 27.8793 56.6461ZM29.4512 55.3973C28.7581 55.3973 28.4339 55.9519 28.388 56.4606C30.5144 56.4606 30.5144 56.4606 30.5144 56.4606C30.4675 55.9988 30.1902 55.3973 29.4512 55.3973Z" fill="#A67EB1"/>
<path d="M34.2598 57.7552C34.2598 59.4657 34.2598 59.4657 34.2598 59.4657C33.7511 59.4657 33.7511 59.4657 33.7511 59.4657C33.7511 55.0731 33.7511 55.0731 33.7511 55.0731C34.2598 55.0731 34.2598 55.0731 34.2598 55.0731C34.2598 55.536 34.2598 55.536 34.2598 55.536C34.4912 55.2129 34.9071 54.9814 35.323 54.9814C36.2017 54.9814 36.7562 55.6288 36.7562 56.6461C36.7562 57.6635 36.2017 58.3108 35.323 58.3108C34.906 58.3097 34.537 58.1252 34.2598 57.7552ZM36.2475 56.6461C36.2475 55.953 35.8775 55.4443 35.2302 55.4443C34.8143 55.4443 34.4442 55.6757 34.2598 55.953C34.2598 57.3862 34.2598 57.3862 34.2598 57.3862C34.4442 57.6635 34.8143 57.8949 35.2302 57.8949C35.8775 57.8938 36.2475 57.3393 36.2475 56.6461Z" fill="#A67EB1"/>
<path d="M41.5178 58.2639C41.5178 57.8938 41.5178 57.8938 41.5178 57.8938C41.2864 58.1711 40.9174 58.3097 40.5004 58.3097C39.9459 58.3097 39.3444 57.9855 39.3444 57.2924C39.3444 56.5523 39.9448 56.2291 40.5004 56.2291C40.9163 56.2291 41.2864 56.3678 41.5178 56.645C41.5178 56.0905 41.5178 56.0905 41.5178 56.0905C41.5178 55.6746 41.1947 55.3973 40.7318 55.3973C40.3618 55.3973 40.0387 55.536 39.7603 55.8602C39.5289 55.4901 39.5289 55.4901 39.5289 55.4901C39.8531 55.167 40.269 54.9814 40.7777 54.9814C41.4709 54.9814 42.0265 55.3057 42.0265 56.0447C42.0265 58.2639 42.0265 58.2639 42.0265 58.2639H41.5178ZM41.5178 57.5707C41.5178 56.9692 41.5178 56.9692 41.5178 56.9692C41.3333 56.692 41.0091 56.5992 40.6391 56.5992C40.1762 56.5992 39.8531 56.8765 39.8531 57.2924C39.8531 57.6624 40.1762 57.9855 40.6391 57.9855C41.0091 57.9866 41.3333 57.848 41.5178 57.5707Z" fill="#A67EB1"/>
<path d="M45.5861 58.2639V55.4901H44.6616V55.0742H47.0194V55.4901H46.0948V58.2639H45.5861Z" fill="#A67EB1"/>
<path d="M49.4701 56.6461C49.4701 55.7215 50.0715 54.9814 51.042 54.9814C52.0135 54.9814 52.6139 55.7215 52.6139 56.6461C52.6139 57.5707 52.0124 58.3108 51.042 58.3108C50.0715 58.3097 49.4701 57.5707 49.4701 56.6461ZM52.1052 56.6461C52.1052 55.9988 51.7351 55.4443 51.042 55.4443C50.3488 55.4443 49.9787 55.9988 49.9787 56.6461C49.9787 57.2934 50.3488 57.8938 51.042 57.8938C51.7362 57.8938 52.1052 57.2934 52.1052 56.6461Z" fill="#A67EB1"/>
<path d="M55.9432 57.7552C55.9432 59.4657 55.9432 59.4657 55.9432 59.4657C55.4345 59.4657 55.4345 59.4657 55.4345 59.4657C55.4345 55.0731 55.4345 55.0731 55.4345 55.0731C55.9432 55.0731 55.9432 55.0731 55.9432 55.0731C55.9432 55.536 55.9432 55.536 55.9432 55.536C56.1746 55.2129 56.5447 54.9814 57.0064 54.9814C57.8382 54.9814 58.4397 55.6288 58.4397 56.6461C58.4397 57.6635 57.8382 58.3108 57.0064 58.3108C56.5447 58.3097 56.1746 58.1252 55.9432 57.7552ZM57.8851 56.6461C57.8851 55.953 57.5151 55.4443 56.8678 55.4443C56.4977 55.4443 56.0818 55.6757 55.9432 55.953C55.9432 57.3862 55.9432 57.3862 55.9432 57.3862C56.0818 57.6635 56.4977 57.8949 56.8678 57.8949C57.5151 57.8938 57.8851 57.3393 57.8851 56.6461Z" fill="#A67EB1"/>
<path d="M6.19481 31.4946L4.25286 37.1808L2.31091 31.4946H0L2.95823 39.3541H5.54749L8.50681 31.4946H6.19481Z" fill="#83276B"/>
<path d="M9.0155 35.4245C9.0155 33.0208 10.8188 31.3561 13.2225 31.3561C15.6262 31.3561 17.4295 33.0208 17.4295 35.4245C17.4295 37.8292 15.6262 39.4928 13.2225 39.4928C10.8188 39.4928 9.0155 37.8282 9.0155 35.4245ZM15.3959 35.4245C15.3959 34.1298 14.5171 33.1594 13.2225 33.1594C11.9279 33.1594 11.0961 34.1309 11.0961 35.4245C11.0961 36.7191 11.929 37.6895 13.2225 37.6895C14.5171 37.6895 15.3959 36.7191 15.3959 35.4245Z" fill="#83276B"/>
<path d="M20.7119 39.3541V36.1645L17.7537 31.4946H20.0188L21.7293 34.407L23.4398 31.4946H25.7518L22.7467 36.1645V39.3541H20.7119Z" fill="#83276B"/>
<path d="M31.4391 39.3541L31.069 38.244H27.9711L27.5552 39.3541H25.2432L28.2025 31.4946H30.7448L33.75 39.3541H31.4391ZM29.4971 33.4824L28.4797 36.4417H30.5145L29.4971 33.4824Z" fill="#83276B"/>
<path d="M34.12 35.4245C34.12 32.928 36.0619 31.3561 38.3739 31.3561C40.1314 31.3561 41.1946 32.2807 41.7492 33.2511C40.0386 34.1757 40.0386 34.1757 40.0386 34.1757C39.7614 33.6211 39.1599 33.1583 38.3739 33.1583C37.0793 33.1583 36.2006 34.1298 36.2006 35.4234C36.2006 36.718 37.0793 37.6884 38.3739 37.6884C38.9754 37.6884 39.5758 37.457 39.8531 37.2256C39.8531 36.6241 39.8531 36.6241 39.8531 36.6241C38.0497 36.6241 38.0497 36.6241 38.0497 36.6241C38.0497 34.8208 38.0497 34.8208 38.0497 34.8208C41.8409 34.8208 41.8409 34.8208 41.8409 34.8208C41.8409 37.9646 41.8409 37.9646 41.8409 37.9646C41.0091 38.8892 39.8531 39.4907 38.3729 39.4907C36.0619 39.4928 34.12 37.9209 34.12 35.4245Z" fill="#83276B"/>
<path d="M43.6453 39.3541V31.4946H49.4242V33.251H45.6789V34.4998H49.3314V36.2562H45.6789V37.5967H49.4242V39.3541H43.6453Z" fill="#83276B"/>
<path d="M55.5732 39.3541C54.2327 36.719 54.2327 36.719 54.2327 36.719C53.2153 36.719 53.2153 36.719 53.2153 36.719C53.2153 39.3541 53.2153 39.3541 53.2153 39.3541C51.1806 39.3541 51.1806 39.3541 51.1806 39.3541C51.1806 31.4946 51.1806 31.4946 51.1806 31.4946C55.1103 31.4946 55.1103 31.4946 55.1103 31.4946C56.8667 31.4946 57.8382 32.6506 57.8382 34.1297C57.8382 35.4702 57.0064 36.2103 56.2663 36.4876C57.8852 39.3541 57.8852 39.3541 57.8852 39.3541H55.5732ZM55.8046 34.0828C55.8046 33.5741 55.3428 33.251 54.8341 33.251C53.2164 33.251 53.2164 33.251 53.2164 33.251C53.2164 34.9615 53.2164 34.9615 53.2164 34.9615C54.8341 34.9615 54.8341 34.9615 54.8341 34.9615C55.3417 34.9615 55.8046 34.6384 55.8046 34.0828Z" fill="#83276B"/>
<path d="M0.739014 47.3064C0.739014 44.8558 2.54233 43.238 4.80739 43.238C6.19481 43.238 7.16524 43.8395 7.8584 44.7171C7.07245 45.1789 7.07245 45.1789 7.07245 45.1789C6.56377 44.5316 5.73197 44.1157 4.80739 44.1157C3.09686 44.1157 1.75638 45.4103 1.75638 47.3053C1.75638 49.1545 3.09686 50.495 4.80739 50.495C5.73197 50.495 6.51792 50.0321 6.88797 49.6621C6.88797 48.0443 6.88797 48.0443 6.88797 48.0443C4.20592 48.0443 4.20592 48.0443 4.20592 48.0443C4.20592 47.1656 4.20592 47.1656 4.20592 47.1656C7.90425 47.1656 7.90425 47.1656 7.90425 47.1656C7.90425 50.0321 7.90425 50.0321 7.90425 50.0321C7.16415 50.8181 6.10093 51.3726 4.8063 51.3726C2.54233 51.3748 0.739014 49.757 0.739014 47.3064Z" fill="#C017A2"/>
<path d="M18.7711 51.2362C16.7364 48.0924 16.7364 48.0924 16.7364 48.0924C15.1645 48.0924 15.1645 48.0924 15.1645 48.0924C15.1645 51.2362 15.1645 51.2362 15.1645 51.2362C14.1929 51.2362 14.1929 51.2362 14.1929 51.2362C14.1929 43.3767 14.1929 43.3767 14.1929 43.3767C17.3367 43.3767 17.3367 43.3767 17.3367 43.3767C18.8158 43.3767 19.8332 44.3013 19.8332 45.7346C19.8332 47.1678 18.8617 47.9079 17.7985 47.9996C19.9249 51.2362 19.9249 51.2362 19.9249 51.2362H18.7711ZM18.8169 45.7346C18.8169 44.8558 18.1696 44.2554 17.245 44.2554C15.1645 44.2554 15.1645 44.2554 15.1645 44.2554C15.1645 47.2606 15.1645 47.2606 15.1645 47.2606C17.245 47.2606 17.245 47.2606 17.245 47.2606C18.1696 47.2606 18.8169 46.6133 18.8169 45.7346Z" fill="#C017A2"/>
<path d="M25.7518 47.3064C25.7518 44.9944 27.3237 43.238 29.6816 43.238C31.9936 43.238 33.5655 44.9944 33.5655 47.3064C33.5655 49.6184 31.9936 51.3748 29.6816 51.3748C27.3237 51.3748 25.7518 49.6184 25.7518 47.3064ZM32.5481 47.3064C32.5481 45.4572 31.438 44.1168 29.6816 44.1168C27.8783 44.1168 26.7692 45.4572 26.7692 47.3064C26.7692 49.1097 27.8794 50.4961 29.6816 50.4961C31.439 50.4961 32.5481 49.1097 32.5481 47.3064Z" fill="#C017A2"/>
<path d="M39.8073 48.1852C39.8073 43.3767 39.8073 43.3767 39.8073 43.3767C40.8246 43.3767 40.8246 43.3767 40.8246 43.3767C40.8246 48.1393 40.8246 48.1393 40.8246 48.1393C40.8246 49.5726 41.5647 50.4972 43.0438 50.4972C44.4771 50.4972 45.263 49.5726 45.263 48.1393C45.263 43.3767 45.263 43.3767 45.263 43.3767C46.2335 43.3767 46.2335 43.3767 46.2335 43.3767C46.2335 48.1852 46.2335 48.1852 46.2335 48.1852C46.2335 50.1271 45.1703 51.3759 43.0438 51.3759C40.9174 51.3748 39.8073 50.1261 39.8073 48.1852Z" fill="#C017A2"/>
<path d="M52.7994 51.2362C52.7994 43.3767 52.7994 43.3767 52.7994 43.3767C55.9432 43.3767 55.9432 43.3767 55.9432 43.3767C57.561 43.3767 58.4397 44.4399 58.4397 45.7346C58.4397 47.0292 57.5151 48.0924 55.9432 48.0924C53.7699 48.0924 53.7699 48.0924 53.7699 48.0924C53.7699 51.2362 53.7699 51.2362 53.7699 51.2362H52.7994ZM57.4223 45.7346C57.4223 44.8558 56.775 44.2554 55.8504 44.2554C53.7699 44.2554 53.7699 44.2554 53.7699 44.2554C53.7699 47.2148 53.7699 47.2148 53.7699 47.2148C55.8504 47.2148 55.8504 47.2148 55.8504 47.2148C56.775 47.2137 57.4223 46.6133 57.4223 45.7346Z" fill="#C017A2"/>
<path d="M71.9394 39.4928C68.7029 39.4928 66.0678 36.8577 66.0678 33.6211C66.0678 23.6811 66.0678 23.6811 66.0678 23.6811C56.1277 23.6811 56.1277 23.6811 56.1277 23.6811C52.8911 23.6811 50.256 21.0459 50.256 17.8094C50.256 14.5728 52.8911 11.9835 56.1277 11.9835C71.9394 11.9835 71.9394 11.9835 71.9394 11.9835C75.176 11.9835 77.8111 14.5728 77.8111 17.8094C77.8111 33.6211 77.8111 33.6211 77.8111 33.6211C77.8122 36.8577 75.176 39.4928 71.9394 39.4928Z" fill="#83276B"/>
<path d="M89 6.75909C89 9.99568 86.3649 12.6308 83.1283 12.6308C79.8459 12.6308 77.2108 9.99568 77.2108 6.75909C77.2108 3.47666 79.8459 0.841553 83.1283 0.841553C86.3649 0.841553 89 3.47666 89 6.75909Z" fill="#83276B"/>
<path d="M1.6636 58.2639V55.4901H0.739014V55.0742H3.09686V55.4901H2.17228V58.2639H1.6636Z" fill="#A67EB1"/>
</svg>
