<svg width="622" height="622" viewBox="0 0 622 622" fill="none" xmlns="http://www.w3.org/2000/svg">
<g opacity="0.2">
<path d="M376.395 121.411C383.56 114.294 387.66 104.161 387.66 93.509C387.66 82.8101 383.795 72.9124 376.537 65.7483L310.694 -0.000732422L277.418 33.3215C303.011 58.9142 324.409 80.265 324.409 80.265C334.212 90.1155 334.212 96.8554 324.409 106.659L320.356 110.806L353.678 144.129C364.989 132.817 376.395 121.411 376.395 121.411Z" fill="#E3009A"/>
<path d="M121.176 245.415C114.107 238.346 104.02 234.292 93.3685 234.292C82.8581 234.292 72.7717 238.063 65.5605 245.274L0 311.164L33.2753 344.581C58.9151 318.941 80.2658 297.449 80.2658 297.449C90.2107 287.646 96.9033 287.646 106.66 297.449L110.807 301.55L144.13 268.321C132.724 256.963 121.176 245.415 121.176 245.415Z" fill="#E3009A"/>
<path d="M169.722 360.606C173.587 364.471 175.802 369.279 175.802 374.652V465.333C175.802 472.45 174.577 477.069 171.56 479.897C168.921 482.678 164.302 483.903 156.997 483.903H151.152V531.035H183.532C204.835 531.035 222.698 513.031 222.698 491.822V366.781C222.698 354.244 217.891 341.989 209.266 333.364C209.266 333.6 203.422 327.52 195.833 320.073L162.37 353.395L169.722 360.606Z" fill="#E3009A"/>
<path d="M245.322 500.635C238.346 507.752 234.198 517.885 234.198 528.537C234.198 539.094 237.969 549.133 245.086 556.439L311.071 621.952L344.393 588.63C318.8 562.943 297.355 541.639 297.355 541.639C287.458 531.836 287.458 525.096 297.355 515.198L301.409 511.192L268.181 477.823C256.916 489.229 245.322 500.635 245.322 500.635Z" fill="#E3009A"/>
<path d="M360.465 452.231C364.377 448.178 369.138 446.151 374.558 446.151H465.193C472.451 446.151 477.023 447.471 479.803 450.251C482.443 453.032 483.81 457.651 483.81 464.862V470.518H530.847V438.327C530.847 416.929 512.984 398.972 491.492 399.113H366.687C354.103 398.972 341.942 404.062 333.317 412.64C333.317 412.64 327.379 418.532 319.838 426.026L353.254 459.489L360.465 452.231Z" fill="#E3009A"/>
<path d="M445.821 375.642C445.821 370.316 447.707 365.32 451.477 361.596L515.624 297.497C520.667 292.454 524.767 290.05 528.726 290.05C532.638 290.05 536.88 292.407 541.876 297.497L545.929 301.55L579.299 268.322L556.581 245.416C541.311 230.334 515.954 230.334 500.966 245.416L412.499 333.883C403.591 342.696 398.501 354.762 398.501 367.064C398.501 367.064 398.501 375.406 398.642 385.963H445.774V375.642H445.821Z" fill="#E3009A"/>
<path d="M500.494 376.631C507.705 383.747 517.744 387.848 528.396 387.848C539.001 387.848 549.04 383.983 556.298 376.725L622 310.882L588.536 277.512C562.897 303.199 541.593 324.503 541.593 324.503C531.789 334.4 525.097 334.4 515.246 324.503L511.099 320.449L477.682 353.724C488.994 365.036 500.494 376.631 500.494 376.631Z" fill="#E3009A"/>
<path d="M452.043 261.487C448.131 257.528 445.963 252.674 445.963 247.301V156.713C445.963 149.549 447.424 144.883 450.11 142.055C452.891 139.321 457.557 138.002 464.674 138.002H470.518V90.9169L438.28 91.0583C416.929 91.0583 399.066 108.968 399.066 130.272V255.313C399.066 267.85 403.968 279.916 412.593 288.635C412.593 288.635 418.485 294.527 426.073 302.021L459.395 268.604L452.043 261.487Z" fill="#E3009A"/>
<path d="M223.17 130.555C223.17 120.61 218.786 110.43 211.434 102.936C203.751 95.5361 194.042 91.1057 184.003 91.1057L90.8231 91.2942L90.9645 138.426H157.421C171.183 138.426 176.132 143.187 176.132 156.949V162.888H223.17V130.555Z" fill="#E3009A"/>
<path d="M176.132 246.312C176.132 251.826 174.106 256.681 170.194 260.593L106.33 324.504C101.051 329.453 96.9978 331.998 93.0858 331.951C89.0325 331.951 85.0263 329.406 79.8417 324.504L75.7885 320.45L42.3248 353.726L65.231 376.443C80.3132 391.525 105.811 391.525 120.799 376.443L209.219 288.212C218.08 279.304 223.123 267.286 223.217 254.984C223.217 254.984 223.123 246.595 223.123 235.943H175.991L176.132 246.312Z" fill="#E3009A"/>
<path d="M130.603 398.736C120.47 398.736 110.289 402.978 102.842 410.566C95.3011 418.107 90.965 427.864 90.965 437.997L91.1536 530.988H138.286C138.191 494.697 138.191 464.485 138.191 464.485C138.191 450.628 143.093 445.727 156.95 445.821L162.653 445.727V398.689H130.603V398.736Z" fill="#E3009A"/>
<path d="M398.548 491.444C398.548 501.483 402.931 511.569 410.472 519.11C417.919 526.652 427.722 530.988 437.95 530.988L530.894 530.893L530.847 483.667C494.65 483.809 464.485 483.809 464.485 483.809C450.534 483.809 445.727 479.001 445.727 465.191V459.347H398.736C398.642 475.183 398.548 491.444 398.548 491.444Z" fill="#E3009A"/>
<path d="M246.17 445.773C251.638 445.773 256.587 447.659 260.31 451.618L324.362 515.764C329.5 520.713 331.762 524.861 331.762 528.961C331.762 532.732 329.547 536.974 324.362 542.111L320.356 546.165L353.678 579.487L376.396 556.816C391.384 541.546 391.384 516.047 376.396 501.106L288.118 412.875C279.163 403.779 267.003 398.736 254.796 398.736H235.896V445.868L246.17 445.773Z" fill="#E3009A"/>
<path d="M445.821 375.642C445.821 370.316 447.707 365.32 451.477 361.596L515.624 297.497C520.667 292.454 524.767 290.05 528.726 290.05C532.638 290.05 536.88 292.407 541.876 297.497L545.929 301.55L579.299 268.322L556.581 245.416C541.311 230.334 515.954 230.334 500.966 245.416L412.499 333.883C403.591 342.696 398.501 354.762 398.501 367.064C398.501 367.064 398.501 375.406 398.642 385.963H445.774V375.642H445.821Z" fill="#E3009A"/>
<path d="M491.304 223.263C501.437 223.263 511.382 218.974 518.97 211.527C526.464 203.986 530.847 194.183 530.847 184.05L530.612 90.9169L483.48 91.0583C483.621 127.161 483.621 157.514 483.621 157.514C483.621 171.324 478.72 176.226 464.816 176.226H459.16V223.263H491.304Z" fill="#E3009A"/>
<path d="M375.642 176.226C370.174 176.226 365.226 174.247 361.267 170.335L297.45 106.282C292.36 101.239 289.956 96.9502 289.956 93.1796C289.956 89.2206 292.36 84.9787 297.308 79.9827L301.362 75.7408L268.134 42.5128L245.275 65.3718C230.381 80.5012 230.287 105.952 245.275 120.846L333.789 209.36C342.696 218.221 354.621 223.264 366.922 223.264H385.964V176.226H375.642Z" fill="#E3009A"/>
<path d="M261.253 169.864C257.482 173.776 252.627 175.849 247.254 175.849H156.761C149.361 175.849 144.837 174.53 142.056 171.749C139.416 168.921 137.908 164.349 137.908 157.185V151.247H90.8706L91.012 183.673C91.012 204.93 108.922 222.934 130.226 222.934H255.125C267.898 222.934 280.011 217.985 288.495 209.36C288.495 209.36 294.386 203.563 301.88 195.928L268.652 162.558L261.253 169.864Z" fill="#E3009A"/>
</g>
</svg>
