<svg width="122" height="80" viewBox="0 0 122 80" fill="none" xmlns="http://www.w3.org/2000/svg">
<path d="M7.67574 79.2984C7.80331 79.3622 7.93089 79.3622 8.05846 79.3622C8.3774 79.3622 8.55814 79.2984 8.68572 78.9263C9.00466 78.2991 9.00464 78.2991 9.00464 78.2991C7.17607 73.8871 7.17609 73.8871 7.17609 73.8871C7.86712 73.8871 7.86711 73.8871 7.86711 73.8871C9.31296 77.4167 9.31296 77.4167 9.31296 77.4167C10.7588 73.8871 10.7588 73.8871 10.7588 73.8871C11.5136 73.8871 11.5136 73.8871 11.5136 73.8871C9.31295 79.1176 9.31296 79.1176 9.31296 79.1176C9.05781 79.7449 8.62192 80 8.04784 80C7.92026 80 7.66511 79.9363 7.54817 79.9363L7.67574 79.2984Z" fill="white"/>
<path d="M15.6173 77.5335C15.6173 79.8617 15.6173 79.8617 15.6173 79.8617C14.9263 79.8617 14.9263 79.8617 14.9263 79.8617C14.9263 73.8764 14.9263 73.8763 14.9263 73.8763C15.6173 73.8763 15.6173 73.8763 15.6173 73.8763C15.6173 74.5036 15.6173 74.5036 15.6173 74.5036C15.9362 74.0677 16.4997 73.7488 17.0631 73.7488C18.2007 73.7488 19.0193 74.6312 19.0193 76.0132C19.0193 77.3953 18.2007 78.2777 17.0631 78.2777C16.4997 78.2883 16 78.0438 15.6173 77.5335ZM18.3283 76.0239C18.3283 75.0777 17.7648 74.3866 16.9462 74.3866C16.3827 74.3866 15.8725 74.7056 15.6279 75.0777C15.6279 77.0338 15.6279 77.0338 15.6279 77.0338C15.8831 77.4165 16.3827 77.7248 16.9462 77.7248C17.7542 77.7248 18.3283 76.97 18.3283 76.0239Z" fill="white"/>
<path d="M22.4212 76.024C22.4212 74.7589 23.2398 73.7595 24.5581 73.7595C25.8764 73.7595 26.7588 74.7695 26.7588 76.024C26.7588 77.2785 25.8764 78.2884 24.5581 78.2884C23.2398 78.2884 22.4212 77.2891 22.4212 76.024ZM26.0146 76.024C26.0146 75.1416 25.5149 74.3868 24.5687 74.3868C23.6864 74.3868 23.1229 75.1416 23.1229 76.024C23.1229 76.9064 23.6864 77.725 24.5687 77.725C25.5043 77.725 26.0146 76.9064 26.0146 76.024Z" fill="white"/>
<path d="M33.5096 78.2246V74.4505H31.2452V78.2246H30.5435V73.8871H34.1368V78.2246H33.5096Z" fill="white"/>
<path d="M37.9854 76.024C37.9854 74.7589 38.8678 73.7595 40.1222 73.7595C41.4405 73.7595 42.2059 74.7695 42.2059 76.0878C42.2059 76.2791 42.2059 76.2791 42.2059 76.2791C38.6764 76.2791 38.6764 76.2791 38.6764 76.2791C38.7402 77.0977 39.3036 77.7887 40.2498 77.7887C40.7495 77.7887 41.2598 77.5336 41.5681 77.2253C41.9508 77.6612 41.9508 77.6612 41.9508 77.6612C41.5043 78.0971 40.8771 78.2884 40.186 78.2884C38.9209 78.2884 37.9854 77.406 37.9854 76.024ZM40.1222 74.323C39.1761 74.323 38.7402 75.0778 38.6764 75.7688C41.5787 75.7688 41.5787 75.7688 41.5787 75.7688C41.5043 75.1416 41.1322 74.323 40.1222 74.323Z" fill="white"/>
<path d="M46.6711 77.5335C46.6711 79.8617 46.6711 79.8617 46.6711 79.8617C45.98 79.8617 45.98 79.8617 45.98 79.8617C45.98 73.8764 45.98 73.8763 45.98 73.8763C46.6711 73.8763 46.6711 73.8763 46.6711 73.8763C46.6711 74.5036 46.6711 74.5036 46.6711 74.5036C46.99 74.0677 47.5535 73.7488 48.1169 73.7488C49.3183 73.7488 50.0731 74.6312 50.0731 76.0132C50.0731 77.3953 49.3183 78.2777 48.1169 78.2777C47.5535 78.2883 47.0538 78.0438 46.6711 77.5335ZM49.382 76.0239C49.382 75.0777 48.8824 74.3866 48 74.3866C47.4365 74.3866 46.9262 74.7056 46.6817 75.0777C46.6817 77.0338 46.6817 77.0338 46.6817 77.0338C46.9369 77.4165 47.4365 77.7248 48 77.7248C48.8824 77.7248 49.382 76.97 49.382 76.0239Z" fill="white"/>
<path d="M56.5582 78.2246C56.5582 77.725 56.5582 77.725 56.5582 77.725C56.2392 78.1077 55.7395 78.2884 55.1761 78.2884C54.4213 78.2884 53.6027 77.8419 53.6027 76.9064C53.6027 75.8964 54.4213 75.4605 55.1761 75.4605C55.7395 75.4605 56.2499 75.6519 56.5582 76.024C56.5582 75.2692 56.5582 75.2692 56.5582 75.2692C56.5582 74.7057 56.1223 74.323 55.4844 74.323C54.9847 74.323 54.5382 74.5143 54.1661 74.9502C53.8472 74.4505 53.8472 74.4505 53.8472 74.4505C54.2831 74.0147 54.8572 73.7595 55.5482 73.7595C56.4944 73.7595 57.2492 74.1954 57.2492 75.2054C57.2492 78.2246 57.2492 78.2246 57.2492 78.2246H56.5582ZM56.5582 77.2891C56.5582 76.4705 56.5582 76.4705 56.5582 76.4705C56.303 76.0878 55.8671 75.9708 55.3568 75.9708C54.7296 75.9708 54.2831 76.3535 54.2831 76.917C54.2831 77.4167 54.719 77.8632 55.3568 77.8632C55.8671 77.8525 56.3137 77.6612 56.5582 77.2891Z" fill="white"/>
<path d="M62.1076 78.2246V74.4505H60.8425V73.8871H64.0638V74.4505H62.7986V78.2246H62.1076Z" fill="white"/>
<path d="M67.402 76.024C67.402 74.7589 68.2206 73.7595 69.5389 73.7595C70.8572 73.7595 71.6758 74.7695 71.6758 76.024C71.6758 77.2785 70.8572 78.2884 69.5389 78.2884C68.2206 78.2884 67.402 77.2891 67.402 76.024ZM70.9848 76.024C70.9848 75.1416 70.4851 74.3868 69.5389 74.3868C68.5927 74.3868 68.0931 75.1416 68.0931 76.024C68.0931 76.9064 68.5927 77.725 69.5389 77.725C70.4851 77.725 70.9848 76.9064 70.9848 76.024Z" fill="white"/>
<path d="M76.2153 77.5335C76.2153 79.8617 76.2153 79.8617 76.2153 79.8617C75.5243 79.8617 75.5243 79.8617 75.5243 79.8617C75.5243 73.8764 75.5243 73.8763 75.5243 73.8763C76.2153 73.8763 76.2153 73.8763 76.2153 73.8763C76.2153 74.5036 76.2153 74.5036 76.2153 74.5036C76.5343 74.0677 77.0339 73.7488 77.6612 73.7488C78.7987 73.7488 79.6173 74.6312 79.6173 76.0132C79.6173 77.3953 78.7987 78.2777 77.6612 78.2777C77.0339 78.2883 76.5343 78.0438 76.2153 77.5335ZM78.8625 76.0239C78.8625 75.0777 78.3628 74.3866 77.4804 74.3866C76.9808 74.3866 76.4067 74.7056 76.2153 75.0777C76.2153 77.0338 76.2153 77.0338 76.2153 77.0338C76.4067 77.4165 76.9701 77.7248 77.4804 77.7248C78.3628 77.7248 78.8625 76.97 78.8625 76.0239Z" fill="white"/>
<path d="M8.44118 41.7595L5.79401 49.5097L3.14683 41.7595H0L4.02923 52.4652H7.5588L11.588 41.7595H8.44118Z" fill="white"/>
<path d="M12.2791 47.107C12.2791 43.8326 14.7349 41.5681 18.0093 41.5681C21.2838 41.5681 23.7396 43.8326 23.7396 47.107C23.7396 50.3814 21.2838 52.6459 18.0093 52.6459C14.7349 52.6565 12.2791 50.392 12.2791 47.107ZM20.9755 47.107C20.9755 45.3422 19.7741 44.0239 18.02 44.0239C16.2552 44.0239 15.1176 45.3422 15.1176 47.107C15.1176 48.8718 16.2552 50.19 18.02 50.19C19.7741 50.2007 20.9755 48.8718 20.9755 47.107Z" fill="white"/>
<path d="M28.2153 52.4652V48.117L24.186 41.7595H27.2691L29.5973 45.725L31.9362 41.7595H35.083L30.99 48.117V52.4652H28.2153Z" fill="white"/>
<path d="M42.8332 52.4652L42.3335 50.9555H38.1129L37.5495 52.4652H34.4026L38.4319 41.7595H41.8977L45.9907 52.4652H42.8332ZM40.186 44.4705L38.804 48.4997H41.5787L40.186 44.4705Z" fill="white"/>
<path d="M46.4797 47.107C46.4797 43.705 49.1269 41.5681 52.2737 41.5681C54.6658 41.5681 56.1116 42.8226 56.877 44.1515C54.5488 45.406 54.5488 45.406 54.5488 45.406C54.1661 44.6512 53.3475 44.0239 52.2844 44.0239C50.5196 44.0239 49.3289 45.3422 49.3289 47.107C49.3289 48.8718 50.5302 50.19 52.2844 50.19C53.103 50.19 53.9216 49.8711 54.3043 49.5628C54.3043 48.7442 54.3043 48.7442 54.3043 48.7442C51.8485 48.7442 51.8485 48.7442 51.8485 48.7442C51.8485 46.2884 51.8485 46.2884 51.8485 46.2884C57.0153 46.2884 57.0153 46.2884 57.0153 46.2884C57.0153 50.5728 57.0153 50.5728 57.0153 50.5728C55.8777 51.8272 54.3043 52.6565 52.295 52.6565C49.1269 52.6565 46.4797 50.509 46.4797 47.107Z" fill="white"/>
<path d="M59.4605 52.4652V41.7595H67.3382V44.1515H62.2352V45.8526H67.2107V48.2446H62.2352V50.0731H67.3382V52.4652H59.4605Z" fill="white"/>
<path d="M75.7155 52.4652C73.887 48.8718 73.887 48.8718 73.887 48.8718C72.5049 48.8718 72.5049 48.8718 72.5049 48.8718C72.5049 52.4652 72.5049 52.4652 72.5049 52.4652C69.7302 52.4652 69.7302 52.4652 69.7302 52.4652C69.7302 41.7595 69.7302 41.7595 69.7302 41.7595C75.0883 41.7595 75.0883 41.7595 75.0883 41.7595C77.4803 41.7595 78.8092 43.3329 78.8092 45.3529C78.8092 47.1815 77.6717 48.1914 76.6724 48.5635C78.873 52.4652 78.873 52.4652 78.873 52.4652H75.7155ZM76.0239 45.2891C76.0239 44.5981 75.3966 44.1515 74.7056 44.1515C72.5049 44.1515 72.5049 44.1515 72.5049 44.1515C72.5049 46.4798 72.5049 46.4798 72.5049 46.4798C74.7056 46.4798 74.7056 46.4798 74.7056 46.4798C75.3966 46.4798 76.0239 46.0439 76.0239 45.2891Z" fill="white"/>
<path d="M0.999268 63.2984C0.999268 59.9602 3.45509 57.7595 6.53814 57.7595C8.4305 57.7595 9.74878 58.5781 10.695 59.7795C9.6212 60.4067 9.62119 60.4067 9.62119 60.4067C8.93016 59.5243 7.79263 58.9609 6.53814 58.9609C4.20991 58.9609 2.38133 60.7256 2.38133 63.309C2.38133 65.8286 4.20991 67.6572 6.53814 67.6572C7.80326 67.6572 8.86638 67.03 9.37668 66.5197C9.37668 64.319 9.37668 64.319 9.37668 64.319C5.71954 64.319 5.71954 64.319 5.71954 64.319C5.71954 63.1177 5.71954 63.1177 5.71954 63.1177C10.7587 63.1177 10.7587 63.1177 10.7587 63.1177C10.7587 67.0193 10.7587 67.0193 10.7587 67.0193C9.74878 68.0931 8.30293 68.8479 6.53814 68.8479C3.45509 68.8479 0.999268 66.6366 0.999268 63.2984Z" fill="white"/>
<path d="M25.5681 68.6564C22.7933 64.3721 22.7933 64.3721 22.7933 64.3721C20.6564 64.3721 20.6564 64.3721 20.6564 64.3721C20.6564 68.6564 20.6564 68.6564 20.6564 68.6564C19.3381 68.6564 19.3381 68.6564 19.3381 68.6564C19.3381 57.9508 19.3381 57.9508 19.3381 57.9508C23.6225 57.9508 23.6225 57.9508 23.6225 57.9508C25.6425 57.9508 27.0245 59.2159 27.0245 61.1614C27.0245 63.1176 25.7062 64.1169 24.2498 64.2445C27.1521 68.6564 27.1521 68.6564 27.1521 68.6564H25.5681ZM25.6318 61.1614C25.6318 59.9601 24.7494 59.1415 23.4949 59.1415C20.6564 59.1415 20.6564 59.1415 20.6564 59.1415C20.6564 63.2345 20.6564 63.2345 20.6564 63.2345C23.495 63.2345 23.4949 63.2345 23.4949 63.2345C24.7494 63.2345 25.6318 62.3521 25.6318 61.1614Z" fill="white"/>
<path d="M35.083 63.2984C35.083 60.1516 37.2199 57.7595 40.4412 57.7595C43.588 57.7595 45.7355 60.1516 45.7355 63.2984C45.7355 66.4452 43.5987 68.8373 40.4412 68.8373C37.2199 68.8479 35.083 66.4452 35.083 63.2984ZM44.3429 63.2984C44.3429 60.7788 42.8332 58.9502 40.4412 58.9502C37.9854 58.9502 36.4757 60.7788 36.4757 63.2984C36.4757 65.7542 37.9854 67.6466 40.4412 67.6466C42.8332 67.6466 44.3429 65.7542 44.3429 63.2984Z" fill="white"/>
<path d="M54.2299 64.4996C54.2299 57.9508 54.2299 57.9508 54.2299 57.9508C55.6119 57.9508 55.6119 57.9508 55.6119 57.9508C55.6119 64.4359 55.6119 64.4358 55.6119 64.4358C55.6119 66.392 56.6219 67.6465 58.6312 67.6465C60.5873 67.6465 61.6505 66.3814 61.6505 64.4358C61.6505 57.9508 61.6505 57.9508 61.6505 57.9508C62.9688 57.9508 62.9688 57.9508 62.9688 57.9508C62.9688 64.4996 62.9688 64.4996 62.9688 64.4996C62.9688 67.1468 61.5229 68.8478 58.6206 68.8478C55.7395 68.8478 54.2299 67.1468 54.2299 64.4996Z" fill="white"/>
<path d="M71.9309 68.6564C71.9309 57.9508 71.9309 57.9508 71.9309 57.9508C76.2153 57.9508 76.2153 57.9508 76.2153 57.9508C78.416 57.9508 79.6173 59.3966 79.6173 61.1614C79.6173 62.9262 78.3522 64.3721 76.2153 64.3721C73.2598 64.3721 73.2598 64.3721 73.2598 64.3721C73.2598 68.6564 73.2598 68.6564 73.2598 68.6564H71.9309ZM78.2352 61.1614C78.2352 59.9601 77.3528 59.1415 76.0984 59.1415C73.2598 59.1415 73.2598 59.1415 73.2598 59.1415C73.2598 63.1707 73.2598 63.1707 73.2598 63.1707C76.0983 63.1707 76.0984 63.1707 76.0984 63.1707C77.3528 63.1707 78.2352 62.3521 78.2352 61.1614Z" fill="white"/>
<path d="M98.0093 52.6565C93.5974 52.6565 90.0146 49.0631 90.0146 44.6512C90.0146 31.107 90.0146 31.107 90.0146 31.107C76.4705 31.107 76.4705 31.107 76.4705 31.107C72.0585 31.107 68.4758 27.5136 68.4758 23.1017C68.4758 18.6897 72.0691 15.1602 76.4705 15.1602C98.0093 15.1602 98.0093 15.1602 98.0093 15.1602C102.421 15.1602 106.015 18.6897 106.015 23.1017C106.015 44.6406 106.015 44.6405 106.015 44.6405C106.015 49.0631 102.421 52.6565 98.0093 52.6565Z" fill="white"/>
<path d="M121.26 8.0585C121.26 12.4705 117.666 16.0638 113.254 16.0638C108.779 16.0638 105.196 12.4705 105.196 8.0585C105.196 3.58275 108.789 2.35291e-05 113.254 2.35291e-05C117.666 -0.0106077 121.26 3.58275 121.26 8.0585Z" fill="white"/>
<path d="M2.26439 78.2246V74.4505H0.999268V73.8871H4.22053V74.4505H2.95543V78.2246H2.26439Z" fill="white"/>
</svg>
