<svg width="71" height="151" viewBox="0 0 71 151" fill="none" xmlns="http://www.w3.org/2000/svg">
<path d="M11.5985 94.9907C11.0347 95.5492 10.7396 96.2712 10.7396 97.146C10.7396 98.9376 12.2678 99.7175 13.4271 100.334C14.5653 100.966 15.282 101.388 15.282 102.305C15.282 103.148 14.6971 103.707 13.7485 103.707C12.5681 103.707 10.9609 102.816 10.3601 102.015V104.676C10.4603 104.718 10.6763 104.829 10.6763 104.829C11.4826 105.145 12.7315 105.409 13.5588 105.409C15.6034 105.409 17.7218 104.07 17.7218 101.862C17.7218 99.9758 16.1673 99.1484 15.0132 98.5424C13.9382 97.968 13.1162 97.5254 13.1162 96.7507C13.1162 95.9866 13.5694 95.5809 14.4863 95.5809C15.2188 95.5809 16.6943 96.1447 17.3319 96.7507V94.0369C17.1211 94.0369 14.4178 93.9262 14.4178 93.9262C13.3059 93.9209 12.2625 94.3109 11.5985 94.9907Z" fill="white"/>
<path d="M27.007 98.8692C27.007 99.3224 27.1967 99.6439 27.7026 99.7704C28.2664 99.9074 28.8039 99.6808 28.9725 99.3751C29.1359 99.08 29.3256 98.4319 29.9632 98.4319C30.427 98.4319 30.6694 98.6743 30.6694 99.08C30.6694 99.3541 30.6799 99.412 30.6799 99.7019C30.3848 99.7967 29.821 100.002 29.2729 100.213C27.8765 100.761 26.7698 101.631 26.7698 103.148C26.7698 104.476 27.7342 105.303 29.2308 105.303C30.4217 105.303 30.9329 104.334 30.9329 104.334C30.9329 104.613 31.0277 105.061 31.0646 105.13H33.104C32.9722 104.592 32.8299 104.228 32.8299 103.217V99.2012C32.8299 97.5308 31.3017 96.9089 30.3163 96.9089C28.3086 96.9089 27.007 97.673 27.007 98.8692ZM28.8197 103.043C28.7249 102.2 30.0476 101.536 30.643 101.325V102.321C30.643 102.463 30.5166 103.348 29.7103 103.601C29.1517 103.77 28.8777 103.491 28.8197 103.043Z" fill="white"/>
<path d="M45.2979 98.8692C45.2979 99.3224 45.4982 99.6439 45.9777 99.7704C46.5468 99.9074 47.0843 99.6808 47.253 99.3751C47.4269 99.08 47.6218 98.4319 48.2437 98.4319C48.6863 98.4319 48.9498 98.6743 48.9498 99.08V99.7019C48.6758 99.7967 48.1172 100.002 47.5533 100.213C46.1674 100.761 45.0766 101.631 45.0766 103.148C45.0766 104.476 46.0251 105.303 47.5165 105.303C48.7232 105.303 49.2291 104.334 49.2291 104.334C49.2291 104.613 49.3187 105.061 49.3714 105.13H51.3949C51.2684 104.592 51.1051 104.228 51.1051 103.217V99.2012C51.1051 97.5308 49.5822 96.9089 48.5915 96.9089C46.5943 96.9089 45.2979 97.673 45.2979 98.8692ZM47.1265 103.043C47.0158 102.2 48.3438 101.536 48.9551 101.325V102.321C48.9551 102.463 48.8181 103.348 48.0013 103.601C47.4321 103.77 47.1739 103.491 47.1265 103.043Z" fill="white"/>
<path d="M34.0999 97.4149C34.3265 97.7627 34.7745 98.5268 34.7745 99.449V105.14H36.9877V100.361C36.9877 99.6755 37.1932 99.2065 37.5094 99.0326C38.0733 98.6638 38.5791 98.922 39.1008 99.0326C39.6436 99.1539 40.0705 98.8113 40.1759 98.3002C40.413 97.0513 38.9006 96.7245 37.9995 96.9775C37.4146 97.1303 36.9139 97.7627 36.9139 97.7627C36.9139 97.7627 36.6821 97.046 36.466 96.7087L34.0999 97.4149Z" fill="white"/>
<path d="M40.9083 97.4939C40.9873 97.673 41.1507 97.9576 41.1507 97.9576C41.1507 97.9576 41.4722 98.5741 41.4722 99.5648V103.622C41.4722 105.151 41.0506 105.941 39.9492 106.352C39.9492 106.352 39.5646 106.516 39.4381 106.552C39.4697 106.71 39.6805 107.807 39.7068 108.002C39.8965 107.944 40.4024 107.807 40.4024 107.807C42.5999 107.174 43.6907 105.651 43.6907 103.285V96.6929C43.4377 96.7719 41.1507 97.4253 40.9083 97.4939Z" fill="white"/>
<path d="M52.4699 93.863C52.5595 94.0316 53.0707 94.7852 53.0707 95.9287V105.135H55.2839V100.44C55.2839 99.0114 55.7266 98.8112 56.2114 98.8112C56.7752 98.8112 57.0809 99.0536 57.0809 100.36V105.13H59.2678V99.4646C59.2678 97.81 58.4193 96.9089 56.8543 96.9089C56.3484 96.9089 55.9005 97.0301 55.4578 97.2566L55.2839 97.3515V93.062C55.0099 93.1358 52.7334 93.7892 52.4699 93.863Z" fill="white"/>
<path d="M18.486 93.863C18.5808 94.0316 19.0762 94.7852 19.0762 95.9287V105.135H21.2947V100.44C21.2947 99.0114 21.7479 98.8112 22.2327 98.8112C22.7702 98.8112 23.0706 99.0536 23.0706 100.36V105.13H25.2943V99.4646C25.2943 97.81 24.4407 96.9089 22.865 96.9089C22.3592 96.9089 21.9112 97.0301 21.4738 97.2566L21.3 97.3515V93.062C21.0312 93.1358 18.7336 93.7892 18.486 93.863Z" fill="white"/>
<path d="M41.1876 94.39C41.1876 95.0592 41.704 95.5809 42.3627 95.5809C43.0214 95.5809 43.5379 95.054 43.5379 94.3953C43.5379 93.7418 43.0214 93.2096 42.3627 93.2096C41.704 93.2096 41.1876 93.7155 41.1876 94.39Z" fill="white"/>
<path d="M23.2656 89.4629C25.3629 89.3628 26.4326 88.4669 26.4326 86.4328V84.325C26.4326 82.1908 25.1152 81.1368 23.3446 81.1368C21.5951 81.1368 20.3567 82.449 20.3567 84.209C20.3567 85.6582 21.1366 86.9124 23.0916 87.4393C19.171 87.4657 19.2132 87.4657 18.096 87.4657C17.2265 87.4657 16.7417 87.1232 16.7417 86.0113V80.2357L13.9488 81.0314C14.0595 81.2159 14.2544 81.7586 14.2544 81.7586L13.327 82.0906C11.4246 82.8337 10.3971 83.9561 10.2284 85.4L10.1968 85.9533C10.1968 86.7754 10.4234 87.4657 10.8977 88.0137C11.4036 88.6461 12.194 88.9992 13.1215 89.0677C13.5167 89.0782 14.3915 88.9886 15.1292 88.4827L15.2188 88.409L15.2926 88.5038C15.7879 89.0993 16.4624 89.4207 17.4426 89.4576H23.2656V89.4629ZM12.4048 85.8637C12.4048 85.1049 12.8474 84.1669 14.4863 83.7031V86.3538C14.4863 86.5435 14.2703 86.9334 13.7802 87.0441C13.5009 87.1021 12.4048 87.139 12.4048 85.8637ZM22.4909 84.3197C22.4488 83.6399 22.7913 82.997 23.3867 82.997C24.1877 82.997 24.3037 83.6399 24.3037 84.3408V86.1377C23.0917 85.9269 22.57 85.2682 22.4909 84.3197Z" fill="white"/>
<path d="M27.8027 82.1117C27.887 82.2698 28.0345 82.5596 28.0345 82.5596C28.082 82.6281 28.3665 83.2447 28.3665 84.1616V88.3194C28.3665 89.837 27.9291 90.638 26.8331 91.0385C26.8331 91.0385 26.5011 91.165 26.3272 91.2282C26.3535 91.4074 26.5748 92.4877 26.6117 92.6879C26.7804 92.6405 27.3021 92.4877 27.3021 92.4877C29.4837 91.8606 30.6061 90.3482 30.6061 87.961V81.2949C30.3374 81.3845 28.0345 82.0327 27.8027 82.1117Z" fill="white"/>
<path d="M41.7198 78.8129C41.7198 79.4716 42.2363 79.9775 42.895 79.9775C43.5537 79.9775 44.0754 79.4769 44.0754 78.8182C44.0754 78.1489 43.5379 77.6167 42.895 77.6167C42.2363 77.6167 41.7198 78.1384 41.7198 78.8129Z" fill="white"/>
<path d="M43.2322 76.3152C43.2322 76.9844 43.7381 77.485 44.4179 77.485C45.0872 77.485 45.5983 76.9844 45.5983 76.3152C45.5983 75.6407 45.0766 75.1031 44.4179 75.1031C43.7697 75.1031 43.2322 75.6407 43.2322 76.3152Z" fill="white"/>
<path d="M44.6234 78.8129C44.6234 79.4716 45.1556 79.9775 45.8354 79.9775C46.4836 79.9775 47.0106 79.4769 47.0106 78.8182C47.0106 78.1489 46.4731 77.6167 45.8354 77.6167C45.1556 77.6167 44.6234 78.1384 44.6234 78.8129Z" fill="white"/>
<path d="M10.8608 78.8129C10.8608 79.4716 11.3561 79.9775 12.0359 79.9775C12.7052 79.9775 13.2216 79.4769 13.2216 78.8182C13.2216 78.1489 12.6894 77.6167 12.0359 77.6167C11.3877 77.6167 10.8608 78.1384 10.8608 78.8129Z" fill="white"/>
<path d="M13.7327 78.8129C13.7327 79.4716 14.2544 79.9775 14.9237 79.9775C15.5929 79.9775 16.0988 79.4769 16.0988 78.8182C16.0988 78.1489 15.5771 77.6167 14.9237 77.6167C14.2544 77.6167 13.7327 78.1384 13.7327 78.8129Z" fill="white"/>
<path d="M20.8626 78.8129C20.8626 79.4716 21.3632 79.9775 22.0535 79.9775C22.6964 79.9775 23.2128 79.4769 23.2128 78.8182C23.2128 78.1489 22.6806 77.6167 22.0535 77.6167C21.3632 77.6167 20.8626 78.1384 20.8626 78.8129Z" fill="white"/>
<path d="M23.7398 78.8129C23.7398 79.4716 24.251 79.9775 24.9097 79.9775C25.5789 79.9775 26.0901 79.4769 26.0901 78.8182C26.0901 78.1489 25.5684 77.6167 24.9097 77.6167C24.2457 77.6167 23.7398 78.1384 23.7398 78.8129Z" fill="white"/>
<path d="M52.3962 78.3913C52.5595 78.5705 52.9864 79.4716 52.9864 80.2831V86.1588C52.9864 87.2022 52.4805 87.4709 51.9957 87.4709H50.2936C49.461 87.4709 49.2449 87.0125 49.2449 86.359V81.3845C48.9814 81.4372 47.2477 81.8904 47.0053 81.9378V86.3854C47.0053 87.0546 46.7577 87.4182 46.3308 87.4657C45.8829 87.492 45.5983 87.3023 45.3928 86.9703V81.7797C45.1451 81.8482 43.3271 82.3067 43.1637 82.3436V86.3854C43.1637 87.0546 42.9161 87.3866 42.4576 87.4657C41.9833 87.5184 41.6408 87.2549 41.488 86.8913V82.2751C41.3088 82.3225 40.9821 82.4173 40.9821 82.4173C40.9821 82.4173 39.6384 82.7599 39.28 82.8494V86.4117C39.28 87.0019 38.9902 87.4604 37.8678 87.4604H35.8389C35.0274 87.4604 34.7534 86.8965 34.7534 86.1904V77.5587L31.9447 78.3808C32.1291 78.56 32.556 79.5401 32.556 80.2831V86.7437C32.556 88.1823 33.1778 89.4523 35.4384 89.4523H38.4263C39.6858 89.4523 40.1811 89.1361 40.5395 88.6935L40.629 88.6144L40.6976 88.6935C41.2509 89.2205 41.8463 89.4681 42.5367 89.4681C43.912 89.4681 44.4917 88.6935 44.4917 88.6935L44.5866 88.7673C45.0977 89.2468 45.6985 89.4681 46.3835 89.4681C47.4901 89.4681 48.1225 88.8305 48.1225 88.8305L48.1963 88.8832C48.4598 89.094 49.0552 89.4576 50.0196 89.4576H52.2012C54.2248 89.4576 55.1944 88.4564 55.1944 86.554V77.5587L52.3962 78.3913Z" fill="white"/>
<path d="M59.3416 89.4629V77.5535L56.5434 78.3755C56.712 78.5494 57.1441 79.4453 57.1441 80.2673V89.4681H59.3416V89.4629Z" fill="white"/>
<path d="M42.0834 13.5746C42.8844 12.7789 43.3429 11.6459 43.3429 10.455C43.3429 9.25877 42.9108 8.15215 42.0992 7.35116L34.7375 0L31.0172 3.72564C33.8786 6.58706 36.271 8.97421 36.271 8.97421C37.3671 10.0756 37.3671 10.8291 36.271 11.9252L35.8178 12.389L39.5434 16.1146C40.8082 14.8499 42.0834 13.5746 42.0834 13.5746Z" fill="white"/>
<path d="M13.5483 27.4391C12.7578 26.6486 11.6301 26.1954 10.4392 26.1954C9.26406 26.1954 8.13634 26.617 7.33009 27.4233L0 34.7902L3.72039 38.5264C6.58708 35.6597 8.97423 33.2568 8.97423 33.2568C10.0861 32.1607 10.8344 32.1607 11.9252 33.2568L12.389 33.7152L16.1146 30.0001C14.8393 28.7301 13.5483 27.4391 13.5483 27.4391Z" fill="white"/>
<path d="M18.976 40.3181C19.4081 40.7503 19.6558 41.2878 19.6558 41.8885V52.0273C19.6558 52.823 19.5188 53.3395 19.1815 53.6556C18.8864 53.9666 18.37 54.1036 17.5532 54.1036H16.8998V59.3732H20.52C22.9019 59.3732 24.8991 57.3602 24.8991 54.9889V41.0085C24.8991 39.6068 24.3616 38.2366 23.3973 37.2723C23.3973 37.2986 22.7438 36.6189 21.8954 35.7863L18.154 39.5119L18.976 40.3181Z" fill="white"/>
<path d="M27.4286 55.9742C26.6486 56.7699 26.1849 57.9029 26.1849 59.0938C26.1849 60.2742 26.6065 61.3967 27.4022 62.2135L34.7797 69.5383L38.5054 65.8127C35.6439 62.9407 33.2463 60.5588 33.2463 60.5588C32.1396 59.4627 32.1396 58.7092 33.2463 57.6025L33.6994 57.1546L29.9843 53.4237C28.7249 54.699 27.4286 55.9742 27.4286 55.9742Z" fill="white"/>
<path d="M40.3023 50.5624C40.7397 50.1092 41.2719 49.8826 41.8779 49.8826H52.0115C52.823 49.8826 53.3341 50.0302 53.6451 50.3411C53.9402 50.652 54.093 51.1684 54.093 51.9747V52.607H59.3521V49.0078C59.3521 46.6154 57.3549 44.6077 54.9519 44.6235H40.9979C39.5909 44.6077 38.2313 45.1768 37.267 46.1359C37.267 46.1359 36.603 46.7946 35.7599 47.6325L39.496 51.3739L40.3023 50.5624Z" fill="white"/>
<path d="M49.8456 41.9992C49.8456 41.4037 50.0564 40.8451 50.478 40.4288L57.65 33.2621C58.2138 32.6983 58.6723 32.4295 59.1149 32.4295C59.5523 32.4295 60.0266 32.693 60.5852 33.2621L61.0384 33.7153L64.7693 30.0002L62.2293 27.4392C60.5219 25.7529 57.6869 25.7529 56.0111 27.4392L46.12 37.3303C45.124 38.3157 44.5549 39.6647 44.5549 41.0401C44.5549 41.0401 44.5549 41.9729 44.5707 43.1533H49.8404V41.9992H49.8456Z" fill="white"/>
<path d="M55.9584 42.1098C56.7647 42.9055 57.8871 43.364 59.078 43.364C60.2637 43.364 61.3862 42.9318 62.1977 42.1203L69.5436 34.7586L65.8021 31.0277C62.9354 33.8997 60.5535 36.2816 60.5535 36.2816C59.4575 37.3882 58.7092 37.3882 57.6078 36.2816L57.1441 35.8284L53.4079 39.5487C54.6726 40.8135 55.9584 42.1098 55.9584 42.1098Z" fill="white"/>
<path d="M50.5412 29.236C50.1039 28.7934 49.8615 28.2506 49.8615 27.6499V17.5216C49.8615 16.7206 50.0248 16.1989 50.3252 15.8827C50.6361 15.5771 51.1578 15.4295 51.9535 15.4295H52.607V10.1652L49.0025 10.181C46.6154 10.181 44.6182 12.1834 44.6182 14.5653V28.5457C44.6182 29.9474 45.1662 31.2965 46.1306 32.2713C46.1306 32.2713 46.7893 32.9301 47.6377 33.7679L51.3633 30.0317L50.5412 29.236Z" fill="white"/>
<path d="M24.9518 14.597C24.9518 13.4851 24.4617 12.3468 23.6397 11.509C22.7807 10.6816 21.6952 10.1863 20.5727 10.1863L10.1546 10.2074L10.1704 15.477H17.6007C19.1394 15.477 19.6927 16.0092 19.6927 17.548V18.212H24.9518V14.597V14.597Z" fill="white"/>
<path d="M19.6927 27.5393C19.6927 28.1559 19.4661 28.6987 19.0287 29.136L11.8883 36.2817C11.2981 36.835 10.8449 37.1196 10.4076 37.1143C9.95437 37.1143 9.50645 36.8297 8.92678 36.2817L8.4736 35.8285L4.73215 39.5489L7.29321 42.0888C8.97949 43.7751 11.8304 43.7751 13.5061 42.0888L23.392 32.224C24.3827 31.2281 24.9465 29.8843 24.9571 28.5089C24.9571 28.5089 24.9465 27.5709 24.9465 26.38H19.6769L19.6927 27.5393Z" fill="white"/>
<path d="M14.6022 44.5813C13.4692 44.5813 12.331 45.0556 11.4984 45.904C10.6552 46.7471 10.1704 47.838 10.1704 48.9709L10.1915 59.368H15.4612C15.4506 55.3103 15.4506 51.9325 15.4506 51.9325C15.4506 50.3832 15.9987 49.8352 17.548 49.8457L18.1856 49.8352V44.576H14.6022V44.5813Z" fill="white"/>
<path d="M44.5602 54.9467C44.5602 56.0691 45.0503 57.1968 45.8934 58.0399C46.726 58.8831 47.8221 59.3679 48.9656 59.3679L59.3574 59.3574L59.3521 54.0772C55.305 54.093 51.9324 54.093 51.9324 54.093C50.3726 54.093 49.8351 53.5555 49.8351 52.0115V51.358H44.5812C44.5707 53.1286 44.5602 54.9467 44.5602 54.9467Z" fill="white"/>
<path d="M27.5234 49.8404C28.1347 49.8404 28.688 50.0512 29.1043 50.4938L36.2657 57.6658C36.8401 58.2191 37.0931 58.6829 37.0931 59.1413C37.0931 59.5629 36.8454 60.0372 36.2657 60.6116L35.8178 61.0648L39.5435 64.7904L42.0834 62.2557C43.7592 60.5483 43.7592 57.6975 42.0834 56.027L32.2134 46.1622C31.2121 45.1452 29.8526 44.5813 28.4877 44.5813H26.3746V49.8509L27.5234 49.8404Z" fill="white"/>
<path d="M49.8456 41.9992C49.8456 41.4037 50.0564 40.8451 50.478 40.4288L57.65 33.2621C58.2138 32.6983 58.6723 32.4295 59.1149 32.4295C59.5523 32.4295 60.0266 32.693 60.5852 33.2621L61.0384 33.7153L64.7693 30.0002L62.2293 27.4392C60.5219 25.7529 57.6869 25.7529 56.0111 27.4392L46.12 37.3303C45.124 38.3157 44.5549 39.6647 44.5549 41.0401C44.5549 41.0401 44.5549 41.9729 44.5707 43.1533H49.8404V41.9992H49.8456Z" fill="white"/>
<path d="M54.9309 24.9623C56.0639 24.9623 57.1757 24.4828 58.0242 23.6502C58.862 22.8071 59.3521 21.711 59.3521 20.578L59.3258 10.1652L54.0561 10.181C54.0719 14.2175 54.0719 17.6112 54.0719 17.6112C54.0719 19.1552 53.5239 19.7032 51.9693 19.7032H51.337V24.9623H54.9309Z" fill="white"/>
<path d="M41.9991 19.7033C41.3878 19.7033 40.8345 19.482 40.3919 19.0446L33.2568 11.8831C32.6877 11.3193 32.4189 10.8397 32.4189 10.4182C32.4189 9.97552 32.6877 9.50125 33.241 8.94267L33.6942 8.4684L29.9791 4.7533L27.4233 7.30908C25.7581 9.00064 25.7475 11.8462 27.4233 13.5115L37.3197 23.4079C38.3156 24.3986 39.6489 24.9624 41.0242 24.9624H43.1532V19.7033H41.9991V19.7033Z" fill="white"/>
<path d="M29.2097 18.9919C28.7881 19.4293 28.2453 19.6612 27.6446 19.6612H17.5269C16.6995 19.6612 16.1937 19.5136 15.8827 19.2027C15.5876 18.8865 15.419 18.3754 15.419 17.5744V16.9104H10.1599L10.1757 20.5359C10.1757 22.9125 12.1782 24.9255 14.5601 24.9255H28.5246C29.9527 24.9255 31.307 24.3722 32.2556 23.4079C32.2556 23.4079 32.9143 22.7597 33.7521 21.906L30.037 18.1751L29.2097 18.9919Z" fill="white"/>
<path d="M64.822 74.086V75.0609H65.8074C65.9602 75.0609 66.1078 75.0187 66.2026 74.9344C66.2975 74.8501 66.3449 74.7289 66.3449 74.5761V74.5287C66.3449 74.223 66.1657 74.0807 65.8074 74.0807H64.822V74.086ZM64.2739 76.958V73.5696H65.7916C65.9918 73.5696 66.1657 73.5959 66.3027 73.6328C66.4503 73.6644 66.5452 73.7224 66.64 73.8014C66.7349 73.891 66.7928 73.9753 66.8245 74.1124C66.8613 74.2283 66.8719 74.3758 66.8719 74.5445C66.8719 74.6235 66.8719 74.692 66.8613 74.7605C66.8561 74.8185 66.8297 74.8765 66.8139 74.9344C66.7717 74.9977 66.7349 75.0503 66.6822 75.1136C66.6347 75.1505 66.5873 75.2295 66.4872 75.2875C66.5873 75.3402 66.64 75.3823 66.6716 75.4192C66.698 75.4667 66.7401 75.5299 66.7665 75.5773C66.7928 75.6353 66.7928 75.7091 66.8192 75.7934C66.8192 75.8777 66.8245 75.9831 66.8245 76.1254C66.835 76.2202 66.835 76.3098 66.835 76.3783C66.835 76.4573 66.8613 76.5206 66.8666 76.5575C66.8771 76.5996 66.9035 76.6418 66.9298 76.6681C66.9298 76.6681 66.9667 76.7314 67.0036 76.763V76.958H66.3923C66.3186 76.7735 66.2711 76.5733 66.2711 76.3467C66.2711 76.0727 66.2711 75.8935 66.2395 75.8039C66.1974 75.6353 66.0393 75.5562 65.8074 75.5562H64.8167V76.9527H64.2739V76.958Z" fill="white"/>
<path d="M62.8616 75.2665C62.8616 76.8052 64.1158 78.0488 65.6388 78.0594C67.167 78.0488 68.4159 76.8052 68.4159 75.2665C68.4159 73.7277 67.167 72.4893 65.6388 72.4735C64.1158 72.4893 62.8616 73.7277 62.8616 75.2665ZM61.9395 75.2665C61.9395 73.2218 63.5994 71.5619 65.6388 71.5619C67.6834 71.5619 69.3433 73.2218 69.3433 75.2665C69.3433 77.3111 67.6887 78.9605 65.6388 78.9605C63.6047 78.9605 61.9395 77.3111 61.9395 75.2665Z" fill="white"/>
<path d="M0.737779 144.41C0.790475 144.41 0.832622 144.452 0.85897 144.531C1.18569 145.463 1.54929 146.528 1.9129 147.656C2.26597 146.66 2.53473 145.927 2.91415 144.821C2.89834 144.763 2.87198 144.684 2.85617 144.641C2.92468 144.589 3.05642 144.52 3.15655 144.52C3.23559 144.52 3.27774 144.631 3.36205 144.926C3.54122 145.516 3.77836 146.196 4.24209 147.619C5.10632 145.142 5.30655 144.626 5.3856 144.42C5.48045 144.42 5.58585 144.473 5.67016 144.531C5.73867 144.599 5.72286 144.71 5.60166 145.042C5.19589 146.106 4.95349 146.77 4.46868 148.035C4.41072 148.198 4.35803 148.267 4.26318 148.314C4.20521 148.341 4.13143 148.367 4.06293 148.383C3.64662 147.007 3.46745 146.496 3.08276 145.348C2.92467 145.817 2.20801 147.83 2.10262 148.098C2.06046 148.204 2.01829 148.272 1.94452 148.299C1.86547 148.335 1.8075 148.367 1.71265 148.383C1.57564 148.019 1.23838 146.95 0.906395 146.038C0.606025 145.205 0.432133 144.768 0.353088 144.599C0.458481 144.494 0.64819 144.42 0.716696 144.42H0.737779V144.41Z" fill="white"/>
<path d="M6.41316 144.41C6.46586 144.41 6.50802 144.452 6.53437 144.531C6.86109 145.463 7.2247 146.528 7.5883 147.656C7.94137 146.66 8.21012 145.927 8.58953 144.821C8.57372 144.763 8.54737 144.684 8.53156 144.641C8.60006 144.589 8.73181 144.52 8.83193 144.52C8.91098 144.52 8.95314 144.631 9.03746 144.926C9.21662 145.516 9.45375 146.196 9.91748 147.619C10.7817 145.142 10.982 144.626 11.061 144.42C11.1559 144.42 11.2613 144.473 11.3456 144.531C11.4141 144.599 11.3983 144.71 11.2771 145.042C10.8713 146.106 10.6289 146.77 10.1441 148.035C10.0861 148.198 10.0334 148.267 9.93856 148.314C9.88059 148.341 9.80682 148.367 9.73831 148.383C9.32201 147.007 9.14285 146.496 8.75816 145.348C8.60007 145.817 7.88339 147.83 7.778 148.098C7.73584 148.204 7.69369 148.272 7.61992 148.299C7.54087 148.335 7.48291 148.367 7.38805 148.383C7.25104 148.019 6.91378 146.95 6.5818 146.038C6.28143 145.205 6.10752 144.768 6.02847 144.599C6.13387 144.494 6.32357 144.42 6.39208 144.42H6.41316V144.41Z" fill="white"/>
<path d="M12.0939 144.41C12.1466 144.41 12.1887 144.452 12.2151 144.531C12.5418 145.463 12.9054 146.528 13.269 147.656C13.6221 146.66 13.8908 145.927 14.2702 144.821C14.2544 144.763 14.2281 144.684 14.2123 144.641C14.2808 144.589 14.4125 144.52 14.5126 144.52C14.5917 144.52 14.6338 144.631 14.7181 144.926C14.8973 145.516 15.1344 146.196 15.5982 147.619C16.4624 145.142 16.6626 144.626 16.7417 144.42C16.8365 144.42 16.9419 144.473 17.0263 144.531C17.0948 144.599 17.079 144.71 16.9578 145.042C16.552 146.106 16.3096 146.77 15.8248 148.035C15.7668 148.198 15.7141 148.267 15.6193 148.314C15.5613 148.341 15.4875 148.367 15.419 148.383C15.0027 147.007 14.8235 146.496 14.4389 145.348C14.2808 145.817 13.5641 147.83 13.4587 148.098C13.4165 148.204 13.3744 148.272 13.3006 148.299C13.2216 148.335 13.1636 148.367 13.0687 148.383C12.9317 148.019 12.5945 146.95 12.2625 146.038C11.9621 145.205 11.7882 144.768 11.7092 144.599C11.8146 144.494 12.0043 144.42 12.0728 144.42H12.0939V144.41Z" fill="white"/>
<path d="M17.8536 147.624C18.0433 147.624 18.175 147.803 18.175 147.977C18.175 148.204 18.0275 148.357 17.8114 148.357C17.6533 148.357 17.4636 148.235 17.4636 147.993C17.4636 147.793 17.6112 147.619 17.843 147.619H17.8536V147.624Z" fill="white"/>
<path d="M18.9708 144.41C19.0129 144.41 19.0656 144.452 19.1183 144.573C19.2659 144.921 19.9298 146.66 20.2934 147.677C20.5464 147.039 21.2789 145.221 21.574 144.41C21.653 144.41 21.7531 144.436 21.8585 144.504C21.9428 144.547 21.9428 144.61 21.79 144.973C21.4633 145.78 21.2789 146.254 20.5622 147.977C20.4832 148.151 20.441 148.256 20.362 148.288C20.2829 148.33 20.2039 148.357 20.1037 148.372C20.0194 148.114 19.8192 147.635 19.1763 145.959C18.8021 145 18.6809 144.747 18.5966 144.583C18.6809 144.515 18.8759 144.41 18.9602 144.41H18.9708Z" fill="white"/>
<path d="M22.9283 142.692C23.0916 142.692 23.2076 142.829 23.2076 142.992C23.2076 143.14 23.1022 143.303 22.923 143.303C22.7175 143.303 22.6279 143.155 22.6279 143.003C22.6279 142.802 22.786 142.692 22.923 142.692H22.9283ZM23.1443 148.056C23.1443 148.214 23.1074 148.256 23.0337 148.272C22.9546 148.288 22.844 148.309 22.6806 148.314C22.6911 147.967 22.707 147.466 22.707 146.965V145.511C22.707 144.984 22.6911 144.726 22.6701 144.531C22.7807 144.478 22.9704 144.452 23.0495 144.452C23.1074 144.452 23.1443 144.494 23.1443 144.979V148.056V148.056Z" fill="white"/>
<path d="M25.3576 144.41C25.658 144.41 26.0215 144.515 26.1691 144.705C26.1796 144.789 26.0901 144.947 25.9689 144.958C25.7792 144.847 25.5104 144.768 25.3049 144.768C24.9044 144.768 24.5882 145.01 24.5882 145.39C24.5882 145.701 24.7885 145.89 25.0045 146.006C25.2891 146.164 25.542 146.264 25.8424 146.438C26.1902 146.644 26.3641 146.939 26.3641 147.25C26.3641 148.046 25.679 148.372 25.073 148.372C24.5777 148.372 24.2351 148.209 24.0876 148.046C24.0507 147.988 24.0507 147.898 24.077 147.845C24.1034 147.777 24.135 147.714 24.2246 147.724C24.4775 147.903 24.8043 148.009 25.1046 148.009C25.6421 148.009 25.9109 147.724 25.9109 147.35C25.9109 147.081 25.7528 146.881 25.4103 146.712C25.1679 146.581 24.9624 146.496 24.7621 146.391C24.3985 146.191 24.1456 145.906 24.1456 145.463C24.1456 144.831 24.7147 144.41 25.347 144.41H25.3576V144.41Z" fill="white"/>
<path d="M27.4444 142.692C27.6077 142.692 27.7236 142.829 27.7236 142.992C27.7236 143.14 27.6182 143.303 27.4391 143.303C27.2336 143.303 27.144 143.155 27.144 143.003C27.144 142.802 27.3021 142.692 27.4391 142.692H27.4444ZM27.6604 148.056C27.6604 148.214 27.6235 148.256 27.5498 148.272C27.4707 148.288 27.36 148.309 27.1967 148.314C27.2072 147.967 27.223 147.466 27.223 146.965V145.511C27.223 144.984 27.2072 144.726 27.1861 144.531C27.2968 144.478 27.4865 144.452 27.5656 144.452C27.6235 144.452 27.6604 144.494 27.6604 144.979V148.056V148.056Z" fill="white"/>
<path d="M30.838 147.787C30.8802 147.924 30.8643 148.046 30.7063 148.167C30.5482 148.277 30.2478 148.367 30.0159 148.367C29.352 148.367 29.0305 147.951 29.0305 147.25C29.0305 146.876 29.0305 146.101 29.0305 144.863C28.7723 144.863 28.6827 144.821 28.6827 144.731C28.7249 144.61 29.1306 144.246 29.2255 144.141C29.3045 144.056 29.3994 144.004 29.4837 143.967C29.4732 144.251 29.4679 144.373 29.4679 144.504C29.8209 144.504 30.8011 144.504 30.9223 144.504C30.8538 144.789 30.6694 144.826 30.5323 144.831C30.1529 144.857 30.3321 144.847 29.4679 144.847C29.4257 145.885 29.431 146.886 29.4573 147.271C29.4995 147.866 29.8368 147.972 30.1319 147.972C30.3743 147.972 30.6325 147.903 30.8169 147.766L30.838 147.787Z" fill="white"/>
<path d="M32.6824 144.41C32.9828 144.41 33.3464 144.515 33.4939 144.705C33.5045 144.789 33.4149 144.947 33.2937 144.958C33.104 144.847 32.8352 144.768 32.6297 144.768C32.2292 144.768 31.913 145.01 31.913 145.39C31.913 145.701 32.1133 145.89 32.3293 146.006C32.6139 146.164 32.8668 146.264 33.1672 146.438C33.515 146.644 33.6889 146.939 33.6889 147.25C33.6889 148.046 33.0038 148.372 32.3978 148.372C31.9025 148.372 31.56 148.209 31.4124 148.046C31.3755 147.988 31.3755 147.898 31.4019 147.845C31.4282 147.777 31.4598 147.714 31.5494 147.724C31.8024 147.903 32.1291 148.009 32.4295 148.009C32.967 148.009 33.2357 147.724 33.2357 147.35C33.2357 147.081 33.0776 146.881 32.7351 146.712C32.4927 146.581 32.2872 146.496 32.0869 146.391C31.7233 146.191 31.4704 145.906 31.4704 145.463C31.4704 144.831 32.0395 144.41 32.6719 144.41H32.6824V144.41Z" fill="white"/>
<path d="M34.9852 145.058C35.333 144.736 35.8073 144.41 36.3448 144.41C37.4461 144.41 37.599 145.337 37.599 146.054V147.255C37.599 147.887 37.599 148.135 37.6148 148.251C37.4567 148.304 37.3355 148.32 37.2143 148.32C37.1616 148.32 37.1458 148.283 37.1458 148.209C37.1458 148.104 37.1563 146.86 37.1563 146.106C37.1563 145.068 36.6873 144.81 36.1867 144.81C35.607 144.81 35.138 145.226 34.9852 145.427V148.109C34.9852 148.256 34.9431 148.288 34.8482 148.309C34.7375 148.325 34.59 148.325 34.5215 148.325C34.5373 148.151 34.5478 147.65 34.5478 146.707V143.461C34.5478 142.95 34.532 142.649 34.511 142.476C34.7692 142.407 34.7955 142.391 34.8904 142.391C34.9483 142.391 34.9852 142.433 34.9852 142.955V145.058V145.058Z" fill="white"/>
<path d="M41.5407 148.014C41.567 148.267 41.3773 148.367 41.1507 148.367C40.7766 148.367 40.6237 148.046 40.629 147.761C40.3761 148.061 39.944 148.367 39.4433 148.367C38.8268 148.367 38.5106 147.898 38.5106 147.476C38.5106 146.507 39.8755 146.249 40.2074 146.164C40.3655 146.127 40.5184 146.096 40.629 146.08L40.6396 145.727C40.6396 145.279 40.4077 144.81 39.828 144.81C39.4802 144.81 39.1641 144.968 38.8742 145.2C38.753 145.268 38.6424 145.184 38.6055 145C38.8057 144.768 39.3327 144.41 39.8965 144.41C40.8556 144.41 41.0822 145.126 41.0822 145.838C41.0822 146.217 41.0559 147.202 41.0717 147.708C41.0822 147.935 41.1771 148.035 41.351 148.035C41.4037 148.035 41.4616 148.025 41.5301 147.998L41.5407 148.014ZM39.0007 147.408C39.0007 147.745 39.2853 147.972 39.6225 147.972C40.1073 147.972 40.4446 147.645 40.5816 147.403C40.6185 147.345 40.6343 147.271 40.6343 147.123V146.396C39.9703 146.528 39.0007 146.733 39.0007 147.397V147.408Z" fill="white"/>
<path d="M42.2257 144.615C42.2784 144.557 42.4576 144.41 42.5366 144.41C42.6842 144.41 42.8317 144.678 42.8317 145.247C43.1163 144.694 43.5168 144.41 43.854 144.41C44.0332 144.41 44.1807 144.489 44.2334 144.547C44.244 144.605 44.244 144.678 44.2176 144.72C44.1913 144.805 44.107 144.884 44.0279 144.894C43.9436 144.852 43.8277 144.836 43.7486 144.836C43.5168 144.836 43.1953 145.063 42.9793 145.548C42.9108 145.711 42.8686 145.869 42.8686 146.059C42.8686 146.596 42.8686 147.935 42.8686 148.109C42.8686 148.23 42.8317 148.288 42.7474 148.299C42.6157 148.314 42.4681 148.325 42.3996 148.325C42.426 148.151 42.426 147.65 42.426 146.707V145.29C42.426 144.963 42.3891 144.752 42.2257 144.652V144.615V144.615Z" fill="white"/>
<path d="M44.2018 149.969C44.7024 149.7 44.987 149.184 44.987 147.835V145.516C44.987 144.989 44.9712 144.731 44.9501 144.536C45.0608 144.483 45.2505 144.457 45.3295 144.457C45.3875 144.457 45.4244 144.499 45.4244 144.984V147.803C45.4244 148.372 45.3875 148.978 45.1451 149.463C44.9185 149.906 44.5496 150.164 44.4337 150.164C44.3283 150.164 44.244 150.095 44.1808 150.001L44.2018 149.969ZM45.2136 142.702C45.377 142.702 45.4929 142.85 45.4929 143.013C45.4929 143.171 45.3875 143.335 45.2083 143.335C45.0186 143.335 44.9132 143.187 44.9132 143.034C44.9132 142.829 45.0713 142.707 45.2083 142.707H45.2136V142.702Z" fill="white"/>
<path d="M49.3661 148.014C49.3925 148.267 49.2027 148.367 48.9761 148.367C48.602 148.367 48.4492 148.046 48.4545 147.761C48.2015 148.061 47.7694 148.367 47.2688 148.367C46.6522 148.367 46.3361 147.898 46.3361 147.476C46.3361 146.507 47.7009 146.249 48.0329 146.164C48.191 146.127 48.3438 146.096 48.4545 146.08L48.465 145.727C48.465 145.279 48.2331 144.81 47.6535 144.81C47.3057 144.81 46.9895 144.968 46.6997 145.2C46.5785 145.268 46.4678 145.184 46.4309 145C46.6312 144.768 47.1581 144.41 47.722 144.41C48.6811 144.41 48.9077 145.126 48.9077 145.838C48.9077 146.217 48.8813 147.202 48.8971 147.708C48.9076 147.935 49.0025 148.035 49.1764 148.035C49.2291 148.035 49.2871 148.025 49.3556 147.998L49.3661 148.014ZM46.8261 147.408C46.8261 147.745 47.1107 147.972 47.4479 147.972C47.9328 147.972 48.27 147.645 48.407 147.403C48.4439 147.345 48.4597 147.271 48.4597 147.123V146.396C47.7958 146.528 46.8261 146.733 46.8261 147.397V147.408Z" fill="white"/>
<path d="M50.6677 145.058C51.0155 144.736 51.4898 144.41 52.0273 144.41C53.1286 144.41 53.2814 145.337 53.2814 146.054V147.255C53.2814 147.887 53.2814 148.135 53.2973 148.251C53.1392 148.304 53.018 148.32 52.8968 148.32C52.8441 148.32 52.8282 148.283 52.8282 148.209C52.8282 148.104 52.8388 146.86 52.8388 146.106C52.8388 145.068 52.3698 144.81 51.8692 144.81C51.2895 144.81 50.8205 145.226 50.6677 145.427V148.109C50.6677 148.256 50.6255 148.288 50.5307 148.309C50.42 148.325 50.2725 148.325 50.204 148.325C50.2198 148.151 50.2303 147.65 50.2303 146.707V143.461C50.2303 142.95 50.2145 142.649 50.1934 142.476C50.4516 142.407 50.478 142.391 50.5728 142.391C50.6308 142.391 50.6677 142.433 50.6677 142.955V145.058V145.058Z" fill="white"/>
<path d="M54.5673 147.624C54.757 147.624 54.8887 147.803 54.8887 147.977C54.8887 148.204 54.7411 148.357 54.5251 148.357C54.367 148.357 54.1773 148.235 54.1773 147.993C54.1773 147.793 54.3249 147.619 54.5567 147.619H54.5673V147.624Z" fill="white"/>
<path d="M58.4563 147.814C58.4404 147.961 58.3772 148.109 58.2823 148.162C58.119 148.267 57.7712 148.367 57.4023 148.367C56.7436 148.367 55.4736 148.14 55.4736 146.412C55.4736 145.242 56.3537 144.404 57.4972 144.404C58.0663 144.404 58.4668 144.61 58.5353 144.715C58.5353 144.879 58.4246 145.026 58.2929 144.994C58.0241 144.857 57.7396 144.789 57.4181 144.789C56.5434 144.789 55.9637 145.49 55.9637 146.391C55.9637 147.714 56.9333 147.982 57.5235 147.982C57.7923 147.982 58.1875 147.914 58.4404 147.803L58.4563 147.814Z" fill="white"/>
<path d="M60.9119 144.41C62.0871 144.41 62.7036 145.247 62.7036 146.365C62.7036 147.466 62.0133 148.372 60.8698 148.372C59.468 148.372 59.0254 147.266 59.0254 146.433C59.0254 145.326 59.7684 144.41 60.9014 144.41H60.9119ZM60.8434 144.736C60.2216 144.736 59.5207 145.237 59.5207 146.354C59.5207 147.461 60.1584 148.04 60.9225 148.04C61.4231 148.04 62.2135 147.693 62.2135 146.386C62.2135 145.537 61.792 144.731 60.854 144.731H60.8434V144.736Z" fill="white"/>
<path d="M64.1159 148.125C64.1159 148.262 64.0579 148.288 63.9683 148.299C63.8577 148.314 63.7154 148.314 63.6469 148.314C63.6627 148.14 63.6732 147.64 63.6732 146.697V145.2C63.6732 144.847 63.6205 144.647 63.5415 144.594V144.578C63.5942 144.525 63.7944 144.415 63.8629 144.415C64.0527 144.415 64.0895 144.821 64.0948 145.116C64.4426 144.752 64.9169 144.404 65.428 144.404C65.9708 144.404 66.3028 144.657 66.482 145.121C66.835 144.742 67.3146 144.404 67.8573 144.404C68.6794 144.404 69.0588 144.973 69.0588 145.932V147.297C69.0588 147.835 69.0746 148.104 69.0957 148.241C68.9324 148.277 68.7953 148.309 68.6899 148.309C68.6478 148.309 68.6214 148.272 68.6214 148.198V146.012C68.6214 145.147 68.2736 144.81 67.7151 144.81C67.1776 144.81 66.8245 145.163 66.5821 145.427L66.5926 148.067C66.5926 148.246 66.5768 148.272 66.4451 148.299C66.2975 148.314 66.1869 148.314 66.1236 148.314C66.1394 148.14 66.15 147.64 66.15 146.697V146.006C66.15 145.174 65.8391 144.81 65.2699 144.81C64.7851 144.81 64.353 145.2 64.1212 145.474V148.125H64.1159Z" fill="white"/>
<path d="M1.36487 136.278C1.36487 137.685 1.93399 137.912 2.46095 137.912C3.06696 137.912 3.53596 137.627 3.53596 136.22V133.828C3.53596 133.67 3.5992 133.638 3.72041 133.623C3.95754 133.596 4.37383 133.591 4.53192 133.591C4.51611 133.912 4.50558 134.381 4.50558 135.045V136.189C4.50558 138.386 3.34098 138.734 2.32921 138.734C0.906404 138.734 0.221349 137.986 0.221349 136.331V134.687C0.221349 134.155 0.210816 133.823 0.195007 133.659C0.353097 133.633 0.990717 133.596 1.17515 133.596C1.33324 133.596 1.3596 133.686 1.3596 134.076V136.278H1.36487Z" fill="white"/>
<path d="M7.73587 136.447C7.73587 136.057 7.504 135.809 7.20363 135.809C6.93488 135.809 6.78734 135.899 6.61871 136.015V138.402C6.61871 138.539 6.6029 138.576 6.41846 138.602C6.10755 138.65 5.82825 138.66 5.48572 138.66C5.50153 138.176 5.51208 137.68 5.51208 137.222V135.92C5.51208 135.704 5.48572 135.599 5.35925 135.52V135.456C5.4383 135.225 5.74393 134.987 6.02849 134.987C6.36575 134.987 6.49749 135.235 6.55546 135.488C6.89799 135.219 7.25632 134.987 7.641 134.987C8.7002 134.987 8.84776 135.899 8.84776 136.463V137.406C8.84776 137.807 8.85831 138.286 8.87412 138.597C8.68968 138.613 8.32606 138.66 7.92557 138.66C7.7991 138.66 7.74113 138.613 7.74113 138.492V136.447H7.73587Z" fill="white"/>
<path d="M10.9451 138.418C10.9451 138.56 10.8819 138.602 10.6763 138.624C10.5024 138.65 10.1652 138.655 9.81213 138.655C9.82267 138.328 9.83847 137.865 9.83847 137.396V136.031C9.83847 135.536 9.82266 135.288 9.80685 135.135C10.0124 135.077 10.5973 135.03 10.7817 135.03C10.9188 135.03 10.9504 135.072 10.9504 135.53V138.418H10.9451ZM10.4181 133.296C10.7554 133.296 10.9609 133.544 10.9609 133.87C10.9609 134.213 10.7132 134.476 10.376 134.476C10.1125 134.476 9.80685 134.323 9.80685 133.902C9.80685 133.465 10.181 133.296 10.4076 133.296H10.4181Z" fill="white"/>
<path d="M14.1859 137.822C14.2281 138.028 14.1965 138.307 14.0489 138.439C13.8434 138.613 13.4956 138.708 13.1056 138.708C12.2414 138.708 11.9885 138.154 11.9885 137.622C11.9885 137.285 11.9885 136.563 11.9885 135.788C11.6776 135.788 11.5089 135.62 11.5089 135.541C11.646 135.288 12.3573 134.645 12.5049 134.529C12.6472 134.408 12.8158 134.308 13.1847 134.276C13.1531 134.508 13.1267 134.845 13.1267 135.088C13.4376 135.088 14.149 135.088 14.2702 135.088C14.1648 135.72 13.9909 135.736 13.8223 135.757C13.6853 135.773 13.3217 135.788 13.1056 135.788C13.074 136.363 13.0793 137.106 13.1162 137.433C13.1583 137.786 13.3533 137.933 13.6273 137.933C13.8645 137.933 14.0805 137.844 14.1596 137.807L14.1859 137.822Z" fill="white"/>
<path d="M17.5532 137.749C17.5638 138.139 17.2265 138.513 17.0842 138.581C16.9735 138.629 16.6205 138.708 16.3675 138.708C15.1766 138.708 14.5232 138.086 14.5232 136.879C14.5232 135.936 15.1608 134.987 16.2569 134.987C17.3161 134.987 17.7113 135.746 17.7113 136.4C17.7113 136.521 17.6955 136.605 17.6797 136.663C17.6533 136.774 17.374 136.895 17.0262 136.99C16.8365 137.048 15.9828 137.053 15.6192 137.037C15.6772 137.691 16.1778 137.902 16.6468 137.902C17.0368 137.902 17.4057 137.78 17.5427 137.728L17.5532 137.749ZM16.1726 135.62C15.9196 135.62 15.6298 135.867 15.6192 136.431C15.8248 136.458 16.3833 136.447 16.5941 136.431C16.6416 136.431 16.6732 136.352 16.6732 136.263C16.6732 135.91 16.5362 135.615 16.1778 135.615H16.1726V135.62Z" fill="white"/>
<path d="M20.6202 134.213C20.6202 133.733 20.6044 133.533 20.578 133.364C20.7519 133.291 21.3737 133.196 21.5582 133.196C21.6952 133.196 21.7268 133.238 21.7268 133.723V137.675C21.7268 137.965 21.8322 138.028 22.0377 138.081V138.112C22.0061 138.365 21.7479 138.703 21.5055 138.703C21.0259 138.703 20.8415 138.513 20.7466 138.286C20.4673 138.502 20.051 138.703 19.7665 138.703C18.7863 138.703 18.1856 137.975 18.1856 136.964C18.1856 135.773 19.0709 134.982 20.2039 134.982C20.3778 134.982 20.5569 135.009 20.6202 135.04V134.213ZM20.6202 135.72C20.5569 135.688 20.4146 135.646 20.2513 135.646C19.8297 135.646 19.3344 135.957 19.3344 136.795C19.3344 137.527 19.7559 137.891 20.2355 137.891C20.3461 137.891 20.5148 137.865 20.6202 137.801V135.72Z" fill="white"/>
<path d="M25.5104 137.327C25.3681 137.712 25.1415 138.302 25.0467 138.539C25.015 138.618 24.9518 138.66 24.8095 138.66C24.604 138.66 24.193 138.613 24.0033 138.555L23.9927 138.523C24.3932 137.548 25.5947 134.613 25.9162 133.839L25.8687 133.696C26.2218 133.623 26.754 133.591 26.8436 133.591C26.9174 133.591 26.9859 133.633 27.0333 133.744C27.4022 134.64 27.9661 136.136 28.2243 136.816C28.551 137.67 28.7407 138.165 28.9093 138.534L28.8988 138.565C28.7249 138.623 28.0767 138.66 27.8765 138.66C27.7395 138.66 27.6709 138.618 27.5866 138.397C27.4496 137.996 27.3495 137.701 27.2125 137.327H25.5104ZM27.0017 136.584C26.675 135.636 26.4589 135.077 26.3693 134.829C26.2112 135.298 25.9952 135.925 25.7475 136.584H27.0017Z" fill="white"/>
<path d="M29.3046 135.456C29.3783 135.24 29.7103 134.987 29.9685 134.987C30.369 134.987 30.5113 135.346 30.5219 135.825C30.7537 135.283 31.0804 134.987 31.5284 134.987C31.6706 134.987 31.834 135.061 31.913 135.124C31.9605 135.23 31.9447 135.499 31.8551 135.667C31.8129 135.867 31.639 136.089 31.5126 136.105C31.3387 136.031 31.2438 136.015 31.0962 136.015C30.9856 136.015 30.7695 136.078 30.6589 136.389C30.6167 136.51 30.6009 136.589 30.6009 136.763C30.6009 137.296 30.6009 137.838 30.6009 138.381C30.6009 138.508 30.5851 138.581 30.4006 138.602C30.0792 138.645 29.8157 138.65 29.4679 138.65C29.4837 138.165 29.4943 137.67 29.4943 137.206V135.852C29.4943 135.699 29.4469 135.562 29.3098 135.483V135.456H29.3046Z" fill="white"/>
<path d="M35.5701 137.938C35.5701 138.418 35.3383 138.703 34.8219 138.703C34.4951 138.703 34.2633 138.56 34.1263 138.281C33.926 138.497 33.5835 138.703 33.2252 138.703C32.7087 138.703 32.1976 138.302 32.1976 137.664C32.1976 136.869 33.0829 136.642 33.7152 136.505C33.8575 136.479 34.0367 136.447 34.121 136.431V136.336C34.121 136.026 33.8997 135.794 33.5203 135.794C33.2515 135.794 32.9775 135.92 32.8194 135.994C32.4294 136.099 32.324 135.762 32.3346 135.499C32.7087 135.246 33.2937 134.982 33.8364 134.982C34.5162 134.982 35.1855 135.414 35.1855 136.342C35.1855 136.668 35.1539 137.195 35.1539 137.733C35.1539 137.812 35.2487 137.917 35.4384 137.917C35.4806 137.917 35.5333 137.917 35.5649 137.912L35.5701 137.938ZM33.2357 137.517C33.2357 137.78 33.4359 137.933 33.6836 137.933C33.8417 137.933 33.9207 137.902 34.0261 137.812C34.0736 137.754 34.0999 137.675 34.0999 137.533V136.99C33.3885 137.064 33.2357 137.332 33.2357 137.506V137.517Z" fill="white"/>
<path d="M37.3144 135.251C37.4989 135.161 37.931 134.987 38.1628 134.987C39.2589 134.987 39.7174 135.81 39.7174 136.663C39.7174 137.923 38.7267 138.708 37.541 138.708C37.1036 138.708 36.7295 138.629 36.4397 138.508C36.2816 138.45 36.2078 138.397 36.2078 138.276V134.208C36.2078 133.775 36.192 133.538 36.1762 133.37C36.3764 133.296 36.9508 133.201 37.1405 133.201C37.2775 133.201 37.3144 133.243 37.3144 133.728V135.251ZM37.3144 138.007C37.4093 138.033 37.5041 138.049 37.6253 138.049C38.0153 138.049 38.5686 137.759 38.5686 136.837C38.5686 136.263 38.263 135.794 37.6569 135.794C37.5674 135.794 37.3882 135.82 37.3144 135.852V138.007Z" fill="white"/>
<path d="M42.1467 134.74C42.1467 134.355 42.1467 134.086 42.1203 133.733C42.3733 133.675 42.7843 133.628 43.1585 133.623C43.501 133.623 44.4126 133.623 45.0608 133.623C45.0028 134.06 44.8922 134.213 44.7973 134.324C44.6708 134.371 44.3494 134.371 43.9911 134.371H43.2849V135.662H44.9712C44.8922 136.279 44.7183 136.41 44.4284 136.41H43.2849V137.854C43.4694 137.886 43.6538 137.902 43.9225 137.902C44.2282 137.902 44.85 137.902 45.261 137.87L45.2768 137.886C45.1978 138.286 45.0397 138.476 44.8237 138.613C44.713 138.639 44.3283 138.655 43.6801 138.655C42.9635 138.655 42.4576 138.613 42.2679 138.576L42.1414 138.418V134.74H42.1467Z" fill="white"/>
<path d="M47.0211 138.381C47.0211 138.523 47.0053 138.587 46.8208 138.613C46.5099 138.655 46.2359 138.66 45.8881 138.66C45.9039 138.176 45.9145 137.68 45.9145 137.222V135.889C45.9145 135.699 45.8829 135.593 45.7617 135.514V135.456C45.8512 135.209 46.1516 134.987 46.4151 134.987C46.7892 134.987 46.8999 135.256 46.9579 135.499C47.2846 135.246 47.7061 134.987 48.1066 134.987C48.6441 134.987 48.9024 135.24 49.071 135.557C49.3819 135.288 49.8614 134.987 50.283 134.987C51.2263 134.987 51.4423 135.836 51.4423 136.363V137.406C51.4423 137.807 51.4529 138.286 51.4687 138.597C51.279 138.613 50.9101 138.66 50.5096 138.66C50.3884 138.66 50.3357 138.613 50.3357 138.492V136.431C50.3357 136.078 50.1513 135.809 49.7929 135.809C49.5716 135.809 49.3924 135.915 49.2344 136.041V138.402C49.2344 138.539 49.2185 138.587 49.0341 138.608C48.7127 138.65 48.4439 138.655 48.1014 138.655C48.1172 138.17 48.1277 137.675 48.1277 137.216V136.437C48.1277 136.062 47.938 135.804 47.6008 135.804C47.3847 135.804 47.195 135.883 47.0264 136.026V138.381H47.0211Z" fill="white"/>
<path d="M53.5344 138.418C53.5344 138.56 53.4712 138.602 53.2657 138.624C53.0918 138.65 52.7545 138.655 52.4014 138.655C52.412 138.328 52.4278 137.865 52.4278 137.396V136.031C52.4278 135.536 52.412 135.288 52.3962 135.135C52.6017 135.077 53.1866 135.03 53.3711 135.03C53.5081 135.03 53.5397 135.072 53.5397 135.53V138.418H53.5344ZM53.0075 133.296C53.3447 133.296 53.5502 133.544 53.5502 133.87C53.5502 134.213 53.3026 134.476 52.9653 134.476C52.7018 134.476 52.3962 134.323 52.3962 133.902C52.3962 133.465 52.7703 133.296 52.9969 133.296H53.0075Z" fill="white"/>
<path d="M54.3407 135.456C54.4145 135.24 54.7465 134.987 55.0047 134.987C55.4052 134.987 55.5474 135.346 55.558 135.825C55.7899 135.283 56.1166 134.987 56.5645 134.987C56.7068 134.987 56.8701 135.061 56.9492 135.124C56.9966 135.23 56.9808 135.499 56.8912 135.667C56.8491 135.867 56.6752 136.089 56.5487 136.105C56.3748 136.031 56.2799 136.015 56.1324 136.015C56.0217 136.015 55.8056 136.078 55.695 136.389C55.6528 136.51 55.637 136.589 55.637 136.763C55.637 137.296 55.637 137.838 55.637 138.381C55.637 138.508 55.6212 138.581 55.4368 138.602C55.1153 138.645 54.8519 138.65 54.5041 138.65C54.5199 138.165 54.5304 137.67 54.5304 137.206V135.852C54.5304 135.699 54.483 135.562 54.346 135.483V135.456H54.3407Z" fill="white"/>
<path d="M60.6063 137.938C60.6063 138.418 60.3744 138.703 59.858 138.703C59.5313 138.703 59.2994 138.56 59.1624 138.281C58.9622 138.497 58.6196 138.703 58.2613 138.703C57.7449 138.703 57.2337 138.302 57.2337 137.664C57.2337 136.869 58.119 136.642 58.7514 136.505C58.8936 136.479 59.0728 136.447 59.1571 136.431V136.336C59.1571 136.026 58.9358 135.794 58.5564 135.794C58.2876 135.794 58.0136 135.92 57.8555 135.994C57.4656 136.099 57.3602 135.762 57.3707 135.499C57.7449 135.246 58.3298 134.982 58.8726 134.982C59.5523 134.982 60.2216 135.414 60.2216 136.342C60.2216 136.668 60.19 137.195 60.19 137.733C60.19 137.812 60.2848 137.917 60.4798 137.917C60.522 137.917 60.5747 137.917 60.6063 137.912V137.938ZM58.2771 137.517C58.2771 137.78 58.4773 137.933 58.725 137.933C58.8831 137.933 58.9622 137.902 59.0675 137.812C59.115 137.754 59.1413 137.675 59.1413 137.533V136.99C58.4299 137.064 58.2771 137.332 58.2771 137.506V137.517Z" fill="white"/>
<path d="M63.4729 137.822C63.5151 138.028 63.4782 138.307 63.3359 138.439C63.1304 138.613 62.7826 138.708 62.3927 138.708C61.5284 138.708 61.2755 138.154 61.2755 137.622C61.2755 137.285 61.2755 136.563 61.2755 135.788C60.9646 135.788 60.796 135.62 60.796 135.541C60.933 135.288 61.6444 134.645 61.7919 134.529C61.9342 134.408 62.1028 134.308 62.4717 134.276C62.4401 134.508 62.4137 134.845 62.4137 135.088C62.7246 135.088 63.436 135.088 63.5573 135.088C63.4519 135.72 63.278 135.736 63.1093 135.757C62.9723 135.773 62.6087 135.788 62.3927 135.788C62.361 136.363 62.3663 137.106 62.4032 137.433C62.4454 137.786 62.6403 137.933 62.9144 137.933C63.1515 137.933 63.3675 137.844 63.4466 137.807L63.4729 137.822Z" fill="white"/>
<path d="M66.8402 137.749C66.8508 138.139 66.5135 138.513 66.3712 138.581C66.2606 138.629 65.9075 138.708 65.6546 138.708C64.4636 138.708 63.8102 138.086 63.8102 136.879C63.8102 135.936 64.4478 134.987 65.5439 134.987C66.6031 134.987 66.9983 135.746 66.9983 136.4C66.9983 136.521 66.9825 136.605 66.9667 136.663C66.9403 136.774 66.6611 136.895 66.3133 136.99C66.1236 137.048 65.2699 137.053 64.9063 137.037C64.9642 137.691 65.4649 137.902 65.9338 137.902C66.3238 137.902 66.6927 137.78 66.8297 137.728L66.8402 137.749ZM65.4596 135.62C65.2066 135.62 64.9168 135.867 64.9063 136.431C65.1118 136.458 65.6704 136.447 65.8811 136.431C65.9286 136.431 65.9602 136.352 65.9602 136.263C65.9602 135.91 65.8232 135.615 65.4648 135.615H65.4596V135.62Z" fill="white"/>
<path d="M68.8586 134.987C69.1853 134.987 69.4909 135.061 69.7755 135.267C69.7913 135.504 69.6859 135.867 69.375 135.841C69.2169 135.767 69.0219 135.72 68.8428 135.72C68.6267 135.72 68.4897 135.825 68.4897 135.968C68.4897 136.11 68.6004 136.184 68.7585 136.278C68.8955 136.358 69.2275 136.51 69.3908 136.589C69.8071 136.821 69.9652 137.132 69.9652 137.501C69.9652 138.307 69.2538 138.708 68.4739 138.708C68.1946 138.708 67.8573 138.634 67.6255 138.502C67.499 138.423 67.4094 138.334 67.4094 138.197C67.4094 138.007 67.5148 137.791 67.6308 137.68C67.8626 137.822 68.2157 137.975 68.5424 137.975C68.7901 137.975 68.9324 137.87 68.9324 137.712C68.9324 137.591 68.8691 137.506 68.6636 137.39C68.4634 137.285 68.2578 137.185 68.0418 137.069C67.7309 136.884 67.4885 136.568 67.4885 136.152C67.4885 135.404 68.1261 134.987 68.8428 134.987H68.8586Z" fill="white"/>
<path d="M3.63079 127.41C3.63079 127.921 3.47797 128.337 3.18814 128.664C2.89304 128.98 2.49255 129.138 2.00247 129.138C1.5282 129.138 1.14878 128.985 0.864223 128.685C0.584932 128.374 0.442657 127.968 0.442657 127.462C0.442657 126.941 0.584926 126.514 0.874757 126.187C1.15932 125.86 1.57035 125.697 2.09204 125.697C3.05112 125.697 3.63079 126.329 3.63079 127.41ZM1.93396 124.738C1.93396 124.986 1.72845 125.191 1.46497 125.191C1.22257 125.191 1.0065 125.001 1.0065 124.733C1.0065 124.485 1.22784 124.279 1.46497 124.279C1.71264 124.279 1.93396 124.474 1.93396 124.738ZM2.82453 127.41C2.82453 126.609 2.56633 126.208 2.05517 126.208C1.5124 126.208 1.23836 126.609 1.23836 127.41C1.23836 128.216 1.50186 128.627 2.02355 128.627C2.55579 128.627 2.82453 128.216 2.82453 127.41ZM3.13017 124.738C3.13017 124.986 2.93519 125.191 2.67171 125.191C2.42404 125.191 2.20272 125.001 2.20272 124.733C2.20272 124.485 2.42404 124.279 2.67171 124.279C2.91411 124.279 3.13017 124.474 3.13017 124.738Z" fill="white"/>
<path d="M7.72533 129.138H4.35275L4.54773 128.458H6.45534L6.47642 128.3V127.51C6.47642 127.141 6.40266 126.851 6.25511 126.635C6.11809 126.445 5.9442 126.351 5.72814 126.351C5.65963 126.351 5.57532 126.366 5.49627 126.403C5.49627 126.329 5.48046 126.182 5.45938 125.982C5.48046 125.982 5.56478 125.976 5.69125 125.95C6.14971 125.95 6.52386 126.108 6.79788 126.435C7.07717 126.751 7.21944 127.152 7.22998 127.642V128.458V128.464H7.72007V129.138H7.72533Z" fill="white"/>
<path d="M12.2625 129.138H7.5567V128.458H10.8186C10.6394 128.042 10.3865 127.615 10.065 127.183C9.64874 126.619 9.27987 126.34 8.96896 126.34C8.74237 126.34 8.6317 126.482 8.6317 126.761C8.6317 126.898 8.66859 127.062 8.7371 127.267L7.95193 127.357C8.03624 126.366 8.54739 125.771 9.21136 125.771C9.72252 125.771 10.2442 126.103 10.7659 126.767C11.1664 127.288 11.4826 127.852 11.7039 128.458H12.2678V129.138H12.2625Z" fill="white"/>
<path d="M14.9869 129.138H14.4231C14.1227 129.138 13.8697 129.064 13.6853 128.911C13.4798 129.064 13.2427 129.138 12.9634 129.138H12.0675V128.458H12.7631C13.132 128.458 13.3217 128.263 13.3217 127.863V127.13L13.1636 126.15L14.0595 125.945V127.863C14.0595 128.263 14.2386 128.458 14.6022 128.458H14.9922V129.138H14.9869ZM13.0161 124.738C13.0161 124.986 12.8211 125.191 12.5576 125.191C12.3099 125.191 12.1044 125.001 12.1044 124.733C12.1044 124.485 12.3099 124.279 12.5576 124.279C12.8211 124.279 13.0161 124.474 13.0161 124.738ZM14.2228 124.738C14.2228 124.986 14.0278 125.191 13.7644 125.191C13.5167 125.191 13.3112 125.001 13.3112 124.733C13.3112 124.485 13.5167 124.279 13.7644 124.279C14.0278 124.279 14.2228 124.474 14.2228 124.738Z" fill="white"/>
<path d="M19.6874 129.138H19.1446C18.8654 129.138 18.6229 129.064 18.428 128.906C18.0591 129.344 17.6112 129.565 17.0947 129.565C16.6732 129.565 16.3465 129.375 16.1304 129.006C15.967 129.096 15.7773 129.143 15.5665 129.143H14.7814V128.464H15.361C15.6983 128.464 15.8722 128.3 15.8827 127.968C15.9196 126.888 16.6205 126.234 17.7693 126.234C18.1381 126.234 18.5017 126.292 18.8654 126.408L18.7758 127.194V127.873C18.7758 128.274 18.9549 128.469 19.3291 128.469H19.6979V129.138H19.6874ZM18.0169 128.601V127.22L17.959 126.798C17.8483 126.761 17.7271 126.746 17.5954 126.746C16.9683 126.746 16.6521 127.136 16.6521 127.931C16.6521 128.564 16.9261 128.943 17.2845 128.943C17.5585 128.943 17.8009 128.827 18.0169 128.601Z" fill="white"/>
<path d="M22.0166 128.016C22.0166 128.716 21.5845 129.138 20.8942 129.138H19.4819V128.458H20.7097C21.0786 128.458 21.263 128.253 21.263 127.842V125.444L21.1366 124.448L22.0219 124.237V128.016H22.0166Z" fill="white"/>
<path d="M23.7977 124.264L23.7134 125.265V129.138H22.9652V125.275L22.8545 124.337L23.7977 124.264Z" fill="white"/>
<path d="M28.9673 129.138C28.5668 129.138 28.2506 129.012 28.0082 128.753C27.7447 128.896 27.418 128.964 27.0333 128.975C26.2271 128.975 25.737 128.4 25.737 127.494C25.737 127.004 25.8951 126.609 26.2218 126.319C26.5485 126.018 26.9754 125.866 27.5023 125.866H27.7447L27.6973 125.528C28.024 125.444 28.3244 125.376 28.6037 125.323V127.852C28.6037 128.258 28.7829 128.464 29.157 128.464H29.6313V129.143H28.9673V129.138ZM27.3021 124.559C27.3021 124.791 27.1124 125.012 26.8489 125.012C26.5854 125.012 26.3904 124.806 26.3904 124.543C26.3904 124.301 26.5854 124.084 26.8489 124.084C27.0966 124.084 27.3021 124.279 27.3021 124.559ZM27.8659 126.356C27.7236 126.361 27.5866 126.371 27.4602 126.371C27.202 126.377 26.9754 126.472 26.7909 126.656C26.6012 126.846 26.5116 127.078 26.5116 127.357C26.5169 128.016 26.754 128.348 27.2125 128.348C27.4391 128.348 27.6551 128.316 27.8712 128.258V126.356H27.8659ZM28.5088 124.559C28.5088 124.791 28.3191 125.012 28.0556 125.012C27.7922 125.012 27.5866 124.806 27.5866 124.543C27.5866 124.301 27.7922 124.084 28.0556 124.084C28.298 124.084 28.5088 124.279 28.5088 124.559Z" fill="white"/>
<path d="M30.311 130.35C30.311 130.582 30.1055 130.803 29.842 130.803C29.5996 130.803 29.3836 130.613 29.3836 130.345C29.3836 130.097 29.6049 129.892 29.842 129.892C30.095 129.892 30.311 130.087 30.311 130.35ZM32.3504 129.138H31.7865C31.4862 129.138 31.2332 129.064 31.0488 128.911C30.8538 129.064 30.6114 129.138 30.3268 129.138H29.431V128.458H30.1319C30.5007 128.458 30.6852 128.263 30.6852 127.863V127.083L30.5324 126.108L31.4282 125.913V127.857C31.4282 128.258 31.6074 128.453 31.9815 128.453H32.3609V129.138H32.3504ZM31.5125 130.35C31.5125 130.582 31.3175 130.803 31.0541 130.803C30.8064 130.803 30.6009 130.613 30.6009 130.345C30.6009 130.097 30.8064 129.892 31.0541 129.892C31.3017 129.892 31.5125 130.087 31.5125 130.35Z" fill="white"/>
<path d="M34.4108 128.042C34.4108 128.711 33.9787 129.138 33.2937 129.138H32.1396V128.458H33.1145C33.4834 128.458 33.6678 128.263 33.6678 127.863V127.115L33.5413 126.15L34.4161 125.955V128.042H34.4108ZM33.9998 130.35C33.9998 130.582 33.8048 130.803 33.5413 130.803C33.2937 130.803 33.0881 130.614 33.0881 130.345C33.0881 130.097 33.2937 129.892 33.5413 129.892C33.8048 129.892 33.9998 130.087 33.9998 130.35Z" fill="white"/>
<path d="M37.3882 129.138H36.7822C36.6452 129.138 36.5187 129.122 36.4028 129.085C36.3132 129.96 35.7757 130.535 34.7902 130.803L34.6269 130.508C35.3278 130.287 35.6755 129.807 35.6755 129.054L35.6703 127.162L35.5175 126.15L36.4133 125.945V127.831C36.4133 128.248 36.5925 128.458 36.9666 128.458H37.3882V129.138Z" fill="white"/>
<path d="M42.4681 129.138H40.6712C40.4446 129.138 40.1811 129.07 39.886 128.943C39.8333 128.975 39.6594 128.98 39.3643 128.975C39.143 128.975 39.0376 129.027 39.0323 129.143H37.1669V128.464H38.9164C39.0165 128.464 39.1061 128.458 39.2009 128.432C39.027 128.279 38.6107 127.889 37.9468 127.257C37.9468 126.904 38.1365 126.577 38.5106 126.292C38.8953 126.008 39.3538 125.86 39.8913 125.86C40.4182 125.86 40.882 126.003 41.2719 126.298C41.6408 126.577 41.8252 126.904 41.8252 127.257C41.7515 127.325 41.3299 127.715 40.5553 128.432C40.6554 128.453 40.7608 128.464 40.8556 128.464H42.4576V129.138H42.4681ZM41.019 127.115C40.9979 126.962 40.8978 126.83 40.7239 126.714C40.5078 126.577 40.2285 126.509 39.9018 126.509C39.5751 126.509 39.3063 126.577 39.085 126.714C38.9058 126.841 38.8005 126.972 38.7741 127.115C39.0218 127.357 39.3907 127.71 39.8965 128.179L41.019 127.115Z" fill="white"/>
<path d="M44.5654 128.016C44.5654 128.716 44.1333 129.138 43.443 129.138H42.0307V128.458H43.2586C43.6274 128.458 43.8119 128.253 43.8119 127.842V125.444L43.6854 124.448L44.5707 124.237V128.016H44.5654Z" fill="white"/>
<path d="M46.3466 124.264L46.2623 125.265V129.138H45.514V125.275L45.4033 124.337L46.3466 124.264Z" fill="white"/>
<path d="M54.1984 128.037C54.1984 128.722 53.7768 129.138 53.0865 129.138H49.6981C49.266 129.138 48.9235 128.985 48.6653 128.695C48.407 128.395 48.2806 128 48.2806 127.51C48.2806 127.13 48.3807 126.777 48.5757 126.44H49.2449C49.0131 126.772 48.8919 127.083 48.8919 127.362C48.8919 128.095 49.1922 128.464 49.7877 128.464H52.8968C53.2657 128.464 53.4554 128.269 53.4554 127.868V127.12L53.3131 126.155L54.1984 125.95V128.037ZM51.1209 125.976C51.1209 126.224 50.9154 126.429 50.6677 126.429C50.4042 126.429 50.2093 126.24 50.2093 125.971C50.2093 125.723 50.4042 125.518 50.6677 125.518C50.9207 125.518 51.1209 125.713 51.1209 125.976ZM52.3277 125.976C52.3277 126.224 52.1221 126.429 51.8745 126.429C51.611 126.429 51.416 126.24 51.416 125.971C51.416 125.723 51.611 125.518 51.8745 125.518C52.1274 125.518 52.3277 125.713 52.3277 125.976Z" fill="white"/>
<path d="M55.9795 124.264L55.8951 125.265V129.138H55.1469V125.275L55.0362 124.337L55.9795 124.264Z" fill="white"/>
<path d="M57.9873 128.822C57.9873 129.839 57.4445 130.503 56.3642 130.809L56.2061 130.514C56.9017 130.292 57.2495 129.813 57.2495 129.059L57.2442 127.167L57.0914 126.156L57.9873 125.95V128.822Z" fill="white"/>
<path d="M60.659 129.138H60.0688C59.3837 129.138 58.9516 128.716 58.9516 128.016V125.449L58.8251 124.485L59.7104 124.279V127.842C59.7104 128.258 59.8896 128.458 60.2532 128.458H60.659V129.138Z" fill="white"/>
<path d="M64.3108 125.976L64.2423 126.761V127.81C64.2423 128.695 63.6785 129.138 62.5508 129.138H60.4482V128.458H61.597C61.4441 128.2 61.3704 127.931 61.3704 127.652C61.3704 127.093 61.5337 126.651 61.8657 126.308C62.1977 125.971 62.6509 125.802 63.2306 125.802C63.5942 125.802 63.9578 125.86 64.3108 125.976ZM63.5204 126.814L63.4624 126.377C63.3518 126.34 63.2147 126.324 63.0725 126.324C62.4401 126.324 62.1239 126.714 62.1239 127.51C62.1239 128.142 62.3453 128.458 62.7721 128.458C63.3096 128.458 63.5784 128.121 63.5784 127.446C63.5731 127.273 63.5573 127.062 63.5204 126.814Z" fill="white"/>
<path d="M66.287 130.577H64.7324V130.292H65.0064C65.0064 129.876 65.2225 129.57 65.6124 129.57C65.7705 129.57 65.9234 129.623 66.0656 129.728C66.0446 129.786 66.0129 129.865 65.9761 129.96C65.8654 129.86 65.7705 129.818 65.702 129.818C65.4912 129.823 65.3859 129.981 65.3859 130.292H65.7547L66.034 130.261L66.287 130.577ZM68.4106 128.016C68.4106 128.332 68.3105 128.595 68.1261 128.801C67.9311 129.027 67.6571 129.138 67.3093 129.138H65.1645L65.4913 128.458H67.0669L65.6651 126.066L64.9327 125.191H65.9286L67.6623 128.184V125.491L67.4832 124.48L68.4106 124.274V128.016Z" fill="white"/>
<path d="M70.1917 124.264L70.1074 125.265V129.138H69.3591V125.275L69.2485 124.337L70.1917 124.264Z" fill="white"/>
</svg>
